<svg width="93" height="27" viewBox="0 0 93 27" fill="none" xmlns="http://www.w3.org/2000/svg">
<path d="M13.1768 26.136C9.36081 26.136 6.20481 24.876 3.70881 22.356C1.23681 19.836 0.00081259 16.74 0.00081259 13.068C0.00081259 9.39597 1.23681 6.29997 3.70881 3.77997C6.20481 1.25997 9.36081 -3.33786e-05 13.1768 -3.33786e-05C15.4808 -3.33786e-05 17.5928 0.551967 19.5128 1.65597C21.4568 2.75997 22.9688 4.24797 24.0488 6.11997L21.1328 7.81197C20.4128 6.41997 19.3328 5.31597 17.8928 4.49997C16.4768 3.65997 14.9048 3.23997 13.1768 3.23997C10.2728 3.23997 7.89681 4.17597 6.04881 6.04797C4.22481 7.91997 3.31281 10.26 3.31281 13.068C3.31281 15.852 4.22481 18.18 6.04881 20.052C7.89681 21.924 10.2728 22.86 13.1768 22.86C14.9048 22.86 16.4768 22.452 17.8928 21.636C19.3328 20.796 20.4128 19.692 21.1328 18.324L24.0488 19.98C22.9928 21.852 21.4928 23.352 19.5488 24.48C17.6048 25.584 15.4808 26.136 13.1768 26.136Z" fill="#38BFF2"/>
<path d="M42.8141 23.4C40.9661 25.224 38.7221 26.136 36.0821 26.136C33.4421 26.136 31.1981 25.224 29.3501 23.4C27.5261 21.576 26.6141 19.332 26.6141 16.668C26.6141 14.004 27.5261 11.76 29.3501 9.93597C31.1981 8.11197 33.4421 7.19997 36.0821 7.19997C38.7221 7.19997 40.9661 8.11197 42.8141 9.93597C44.6621 11.76 45.5861 14.004 45.5861 16.668C45.5861 19.332 44.6621 21.576 42.8141 23.4ZM36.0821 23.076C37.8821 23.076 39.3941 22.464 40.6181 21.24C41.8421 20.016 42.4541 18.492 42.4541 16.668C42.4541 14.844 41.8421 13.32 40.6181 12.096C39.3941 10.872 37.8821 10.26 36.0821 10.26C34.3061 10.26 32.8061 10.872 31.5821 12.096C30.3581 13.32 29.7461 14.844 29.7461 16.668C29.7461 18.492 30.3581 20.016 31.5821 21.24C32.8061 22.464 34.3061 23.076 36.0821 23.076ZM77.3142 18.108C77.6262 19.716 78.3582 20.964 79.5102 21.852C80.6862 22.74 82.1262 23.184 83.8302 23.184C86.2062 23.184 87.9342 22.308 89.0142 20.556L91.6782 22.068C89.9262 24.78 87.2862 26.136 83.7582 26.136C80.9022 26.136 78.5742 25.248 76.7742 23.472C74.9982 21.672 74.1102 19.404 74.1102 16.668C74.1102 13.956 74.9862 11.7 76.7382 9.89997C78.4902 8.09997 80.7582 7.19997 83.5422 7.19997C86.1822 7.19997 88.3302 8.13597 89.9862 10.008C91.6662 11.856 92.5062 14.088 92.5062 16.704C92.5062 17.16 92.4702 17.628 92.3982 18.108H77.3142ZM83.5422 10.152C81.8622 10.152 80.4702 10.632 79.3662 11.592C78.2622 12.528 77.5782 13.788 77.3142 15.372H89.3382C89.0742 13.668 88.4022 12.372 87.3222 11.484C86.2422 10.596 84.9822 10.152 83.5422 10.152Z" fill="black"/>
<path d="M59.4303 0.467967C62.8623 0.467967 65.7063 1.69197 67.9623 4.13997C70.2423 6.56397 71.3823 9.53997 71.3823 13.068C71.3823 16.596 70.2423 19.584 67.9623 22.032C65.7063 24.456 62.8623 25.668 59.4303 25.668H49.6023V0.467967H59.4303ZM59.4303 22.5C61.9983 22.5 64.0983 21.6 65.7303 19.8C67.3623 18 68.1783 15.756 68.1783 13.068C68.1783 10.38 67.3623 8.13597 65.7303 6.33597C64.0983 4.53597 61.9983 3.63597 59.4303 3.63597H52.9503V22.5H59.4303Z" fill="#F15525"/>
</svg>
