<svg xmlns="http://www.w3.org/2000/svg" width="308" height="321" fill="none"><path fill="#38BFF2" stroke="#263238" stroke-linecap="round" stroke-linejoin="round" d="M259.022 166.927H48.481v88.692h210.541z"/><path fill="#fff" stroke="#263238" stroke-miterlimit="10" d="M72.687 172.295H52.881v10.965h19.806zM254.153 225.757h-31.198v10.964h31.198zM254.161 185.989h-19.259v10.965h19.259zM72.687 212.236H52.881v10.965h19.806zM68.918 199.026H52.88v10.964h16.037zM63.843 185.661H52.88v10.964h10.962zM77.845 185.661H66.883v10.964h10.962zM91.837 185.661H80.875v10.964h10.962zM105.831 185.661H94.869v10.964h10.962zM119.831 185.661h-10.962v10.964h10.962zM133.825 185.661h-10.962v10.964h10.962zM147.814 185.661h-10.962v10.964h10.962zM161.816 185.661h-10.962v10.964h10.962zM175.81 185.661h-10.962v10.964h10.962zM189.81 185.661h-10.962v10.964h10.962zM203.804 185.661h-10.962v10.964h10.962zM217.798 185.661h-10.962v10.964h10.962zM231.798 185.661h-10.962v10.964h10.962zM63.843 239.277H52.88v10.965h10.962zM77.845 239.277H66.883v10.965h10.962zM91.837 239.277H80.875v10.965h10.962zM108.25 239.277H94.87v10.965h13.38zM178.229 239.277h-66.95v10.965h66.95zM225.691 239.277h-10.962v10.965h10.962zM239.712 239.277H228.75v10.965h10.962zM197.989 239.277h-17.022v10.965h17.022zM254.151 239.277h-10.962v10.965h10.962zM82.993 199.026H72.031v10.964h10.962zM96.987 199.026H86.025v10.964h10.962zM110.987 199.026h-10.962v10.964h10.962zM124.982 199.026H114.02v10.964h10.962zM138.983 199.026h-10.962v10.964h10.962zM152.972 199.026H142.01v10.964h10.962zM166.966 199.026h-10.962v10.964h10.962zM180.968 199.026h-10.962v10.964h10.962zM194.96 199.026h-10.962v10.964h10.962zM208.954 199.026h-10.962v10.964h10.962zM222.954 199.026h-10.962v10.964h10.962zM236.944 199.026h-10.962v10.964h10.962zM254.149 199.026v24.339h-10.962V209.99h-3.212v-10.964zM86.208 212.391H75.246v10.965h10.962zM100.2 212.391H89.238v10.965H100.2zM114.191 212.391h-10.962v10.965h10.962zM128.191 212.391h-10.962v10.965h10.962zM142.185 212.391h-10.962v10.965h10.962zM156.185 212.391h-10.962v10.965h10.962zM170.179 212.391h-10.962v10.965h10.962zM184.173 212.391h-10.962v10.965h10.962zM198.173 212.391h-10.962v10.965h10.962zM212.167 212.391h-10.962v10.965h10.962zM226.157 212.391h-10.962v10.965h10.962zM240.157 212.391h-10.962v10.965h10.962zM80.253 225.757H69.291v10.964h10.962zM94.247 225.757H83.285v10.964h10.962zM108.247 225.757H97.285v10.964h10.962zM122.241 225.757h-10.962v10.964h10.962zM136.243 225.757h-10.962v10.964h10.962zM150.235 225.757h-10.962v10.964h10.962zM164.23 225.757h-10.962v10.964h10.962zM178.23 225.757h-10.962v10.964h10.962zM192.22 225.757h-10.962v10.964h10.962zM206.214 225.757h-10.962v10.964h10.962zM220.214 225.757h-10.962v10.964h10.962zM86.208 172.953H75.246v10.964h10.962zM100.2 172.953H89.238v10.964H100.2zM114.191 172.953h-10.962v10.964h10.962zM128.191 172.953h-10.962v10.964h10.962zM142.185 172.953h-10.962v10.964h10.962zM156.185 172.953h-10.962v10.964h10.962zM170.179 172.953h-10.962v10.964h10.962zM184.173 172.953h-10.962v10.964h10.962zM198.173 172.953h-10.962v10.964h10.962zM212.167 172.953h-10.962v10.964h10.962zM226.157 172.953h-10.962v10.964h10.962zM240.157 172.953h-10.962v10.964h10.962zM254.151 172.953h-10.962v10.964h10.962zM66.161 225.757h-13.28v10.964h13.28z"/><path fill="#263238" d="m48.48 167.493 4.4-1.469h203.286l2.893 1.451z"/><path fill="#fff" d="m232.848 272.572.109-40.361c.438-1.625.794-7.614 1.725-11.786 1.588-6.993-4.655-15.428-5.093-15.702-1.752-1.096-5.476-1.077-5.476-1.077s-3.651-4.163-6.91-5.478a16.3 16.3 0 0 0-6.991-.867 33.4 33.4 0 0 0-8.306-5.031 6.838 6.838 0 0 0-6.992 1.315l-4.107 6.391a4.766 4.766 0 0 0 .557 5.952c1.953 1.917 4.454 1.022 5.713 1.022 1.744 0 2.401-1.972 2.401-1.972s.429 10.271 0 11.586c-.447 1.305-3.715 4.363-3.715 4.363l-10.953-14.451a105 105 0 0 1-9.83-16.232 8 8 0 0 0-1.232-1.917c-1.917-2.164-6.015-2.803-7.083 1.214a7.95 7.95 0 0 0 .173 3.871c4.564 13.493 10.387 23.69 15.69 34.317 3.149 6.308 1.981 6.235 3.551 9.083-.183.128-.092.366-.292.484-.767 3.068-1.306 6.144-2.081 9.212a42 42 0 0 0-3.496-11.12c.442-2.136.605-4.321.484-6.5a8.56 8.56 0 0 0-2.739-5.76 5.62 5.62 0 0 0-3.185-1.242 3.321 3.321 0 0 0-3.505 2.839 34 34 0 0 1-.913 4.948 49 49 0 0 1-2.519 6.199c0 4.081 2.519 3.414 4.354 19.792 1.424 12.781 17.853 21.19 26.798 30.401l10.593 31.299c13.329-6.272 18.817-9.408 30.185-18.033z"/><path fill="#92E3A9" d="M178.185 250.479c.11-.201.201-.402.292-.612a.7.7 0 0 0-.292.612M204.499 194.005a9 9 0 0 0-4.317-1.826zM199.637 198.278l.054.456a.72.72 0 0 0-.054-.456"/><g fill="#fff" opacity=".5"><path d="M178.185 250.479c.11-.201.201-.402.292-.612a.7.7 0 0 0-.292.612M204.499 194.005a9 9 0 0 0-4.317-1.826zM199.633 198.278l.055.456a.72.72 0 0 0-.055-.456M204.661 237.871c-.41-1.022-2.4-3.962-3.559-1.926z" opacity=".5"/></g><path fill="#fff" d="M170.727 232.96a11.5 11.5 0 0 0-2.674 3.003z"/><path stroke="#263238" stroke-miterlimit="10" d="m209.579 317.364-10.502-31.326c-8.945-9.212-25.374-17.638-26.798-30.401-1.826-16.378-4.354-15.711-4.354-19.792a49 49 0 0 0 2.519-6.199c.426-1.625.731-3.279.913-4.948a3.32 3.32 0 0 1 3.505-2.839 5.62 5.62 0 0 1 3.185 1.241 8.56 8.56 0 0 1 2.738 5.761 25.2 25.2 0 0 1-.483 6.5 42 42 0 0 1 3.495 11.119c.776-3.067 1.315-6.144 2.082-9.211.2-.119.109-.356.292-.484-1.57-2.848-.402-2.739-3.551-9.084-5.303-10.626-11.117-20.824-15.69-34.317a7.94 7.94 0 0 1-.173-3.871c1.067-4.016 5.166-3.377 7.082-1.214a8 8 0 0 1 1.233 1.917c2.78 5.697 6.07 11.13 9.83 16.232l10.953 14.452s3.267-3.058 3.715-4.364c.429-1.314 0-11.585 0-11.585s-.658 1.972-2.401 1.972c-1.259 0-3.76.913-5.714-1.022a4.77 4.77 0 0 1-.648-5.925l4.08-6.391a6.84 6.84 0 0 1 6.992-1.315 33.4 33.4 0 0 1 8.306 5.031 16.3 16.3 0 0 1 6.991.867c3.286 1.324 6.91 5.478 6.91 5.478s3.715 0 5.476 1.077c.438.274 6.682 8.709 5.093 15.702-.912 4.172-1.287 10.161-1.725 11.786l-.109 40.361 7.335 26.759"/><path stroke="#263238" stroke-miterlimit="10" d="M211.217 198.725a72 72 0 0 1 2.482 18.258 9.9 9.9 0 0 0 .329 3.068 3.02 3.02 0 0 0 2.09 2.081M224.121 204.723c2.738 5.715-.064 18.478.137 19.381a3.24 3.24 0 0 0 1.543 2.191M200.591 197.94c-.319 1.826-.584 3.925-.913 5.742a10.57 10.57 0 0 1-3.651-7.303M183.102 246.654l-1.971.867M183.605 248.233a11.4 11.4 0 0 0 0 4.62M195.145 231.17l2.181 3.935M199.342 216.774l2.172-3.068M229.888 231.17l-.658 2.411"/><path stroke="#263238" stroke-miterlimit="10" d="M224.58 224.625q.913-3.067 1.926-6.135M230.967 213.715a2.463 2.463 0 0 1 3.322 1.032M217.887 203.235a4.71 4.71 0 0 1 4.39 1.004M177.232 209.324a6.68 6.68 0 0 1 5.659-2.136M168.992 192.106a6.12 6.12 0 0 1 4.564-1.077M170.727 232.96a11.5 11.5 0 0 0-2.674 3.003M171.566 228.806c1.443-1.023 3.743 1.278 5.066.1a2.09 2.09 0 0 0 .447-1.972 6.9 6.9 0 0 1-.264-2.09M212.268 222.479a16.54 16.54 0 0 1 1.004 11.704M222.872 228.112a7.57 7.57 0 0 1-.913 5.012"/><path fill="#fff" d="M131.137 227.599c-.393-1.825-2.958-1.542-2.958-1.542-8.625.502-9.784 14.022-9.784 14.022l-3.094 9.267-.913-13.932.091-17.957s2.61-17.182 1.451-19.875a3.935 3.935 0 0 0-3.569-2.611c-5.02-1.26-5.312 5.98-5.312 5.98l-4.235 14.771-1.789 15.931-1.442-.776s-.684-16.898-.392-17.181 2.026-11.686 2.026-11.686.913-2.118 2.127-4.82a5.86 5.86 0 0 0 0-4.83c-2.036-4.154-6.27-2.218-7.147 0a64 64 0 0 1-3.469 6.564l-4.837 13.229c.182 2.994-1.534 17.756-1.534 17.756l-1.743-.785-2.802-8.673 2.136-8.883s4.664-5.112 3.852-8.125c-.813-3.012-4.728-2.118-4.728-2.118l-7.905 9.449H72.84l-5.477 6.957a44.1 44.1 0 0 0-1.287 23.143l1.26 5.87v37.95s-3.751 6.08-3.751 6.656c0 .264-3.55 6.706-5.714 12.686 9.426 6.163 19.6 11.368 31.753 16.464 3.46-9.741 9.357-23.052 11.593-25.481 4.436-4.829 13.125-14.095 13.125-14.095s9.867-15.858 11.026-21.135c.913-4.327 3.268-12.178 4.071-14.871a5.3 5.3 0 0 0 .219-1.89c-.064-1.424-.201-4.19-.201-6.628 0-3.524 2.054-7.002 1.68-8.801"/><path stroke="#263238" stroke-miterlimit="10" d="M57.871 304.036c2.744-6.273 6.594-15.022 6.594-15.287 0-.575 3.752-6.655 3.752-6.655v-37.942l-1.26-5.833a44.1 44.1 0 0 1 1.26-23.088l5.476-6.957h2.328l7.904-9.449s3.961-.913 4.728 2.118-3.852 8.107-3.852 8.107l-2.136 8.883 2.803 8.673 1.743.785s1.716-14.762 1.533-17.757l4.838-13.228a64 64 0 0 0 3.468-6.564c.913-2.218 5.112-4.154 7.147 0a5.86 5.86 0 0 1 0 4.829c-1.168 2.739-2.127 4.821-2.127 4.821s-1.734 11.393-2.026 11.685.393 17.182.393 17.182l1.442.776 1.743-15.931 4.235-14.771s.292-7.24 5.312-5.98c.788.027 1.55.291 2.186.757a3.93 3.93 0 0 1 1.383 1.854c1.159 2.693-1.451 19.875-1.451 19.875l-.091 17.957.912 13.931 3.095-9.266s1.159-13.521 9.784-14.023c0 0 2.565-.264 2.957 1.543.393 1.808-1.679 5.277-1.679 8.755 0 2.438.137 5.204.201 6.628a5.3 5.3 0 0 1-.219 1.89c-.804 2.693-3.113 10.544-4.071 14.872-1.159 5.276-11.026 21.134-11.026 21.134s-8.689 9.266-13.125 14.096c-2.237 2.428-8.942 18.303-12.401 28.044"/><path fill="#fff" d="M87.083 228.788a5.53 5.53 0 0 1-1.306 5.203"/><path stroke="#263238" stroke-miterlimit="10" d="M87.083 228.788a5.53 5.53 0 0 1-1.306 5.203"/><path fill="#fff" d="M72.357 241.551c1.25-1.945 2.474-4.611 2.136-6.893-.657-4.483-2.738-9.641-1.78-14.078.585-2.83 1.178-5.669 1.762-8.499"/><path stroke="#263238" stroke-miterlimit="10" d="M72.357 241.551c1.25-1.945 2.474-4.611 2.136-6.893-.657-4.483-2.738-9.641-1.78-14.078.585-2.83 1.178-5.669 1.762-8.499M108.752 199.209a8.94 8.94 0 0 1 4.564 0v-1.269M96.791 193.503a2.91 2.91 0 0 0 4.564-2.438M129.756 225.2a5.6 5.6 0 0 0-4.19 5.779l2.236.666"/><path fill="#fff" d="M100.379 226.314c.1 1.533-.091 5.194 0 6.719z"/><path stroke="#263238" stroke-miterlimit="10" d="M100.379 226.314c.1 1.533-.091 5.194 0 6.719"/><path fill="#fff" d="M102.061 228.432a2958 2958 0 0 1-.557 7.531v-.958"/><path stroke="#263238" stroke-miterlimit="10" d="M102.061 228.432a2958 2958 0 0 1-.557 7.531v-.958"/><path fill="#fff" d="M115.96 249.593a12.56 12.56 0 0 1-.858 8.272z"/><path stroke="#263238" stroke-miterlimit="10" d="M115.96 249.593a12.56 12.56 0 0 1-.858 8.272M92.853 236.438c-1.99 2.182-1.698 7.413-.292 10.298M107.556 240.035a10.3 10.3 0 0 1-2.437 6.701M78.357 237.479a9.34 9.34 0 0 0 1.36 6.39M69.887 244.298a7.8 7.8 0 0 0 1.405 4.875M81.496 202.203a2.91 2.91 0 0 1 3.195.521l1.15-1.498M90.863 208.913a3.77 3.77 0 0 1 4.829.813M105.482 213.478a6.1 6.1 0 0 1 5.194.109M72.943 221.137a4.94 4.94 0 0 1 4.783-2.373M66.818 229.865a2.594 2.594 0 0 1 2.164-2.428"/><path fill="#fff" stroke="#263238" stroke-linecap="round" stroke-linejoin="round" d="M306.725 11.382.5 12.825l4.628-6.939A12.02 12.02 0 0 1 15.113.5h277.072a11.98 11.98 0 0 1 9.346 4.473z"/><path fill="#757575" stroke="#263238" stroke-linecap="round" stroke-linejoin="round" d="M158.935 57.294h-16.777c-17.214 0-31.17 13.958-31.17 31.176v16.78c0 17.218 13.956 31.176 31.17 31.176h16.777c17.214 0 31.17-13.958 31.17-31.176V88.47c0-17.218-13.956-31.176-31.17-31.176"/><path fill="#999" stroke="#263238" stroke-linecap="round" stroke-linejoin="round" d="M125.363 103.552v11.247a6.39 6.39 0 0 0 6.389 6.391h38.582a6.387 6.387 0 0 0 6.389-6.345c.055-5.067.32-11.293.32-11.293z"/><path fill="#fff" stroke="#263238" stroke-linecap="round" stroke-linejoin="round" d="M266.564 107.304H40.934a5.778 5.778 0 0 1-5.385-3.652L.746 14.285A3.56 3.56 0 0 1 4.07 9.428h299.379a3.557 3.557 0 0 1 3.499 3.168 3.55 3.55 0 0 1-.223 1.69l-34.802 89.339a5.79 5.79 0 0 1-5.358 3.679"/><path fill="#fff" d="M268.243 99.517H38.716L7.135 15.089h292.542z"/><path fill="#263238" d="M176.776 107.185h-51.169v3.506h51.169z"/><path fill="#38BFF2" d="M234.719 95.901H72.635c-.913 0-1.735-.401-1.899-.913L47.68 21.726c-.255-.822.466-1.488 1.616-1.488h208.762c1.15 0 1.871.666 1.606 1.488l-23.046 73.262c-.174.502-1.013.913-1.899.913"/><path fill="#263238" d="M233.095 94.23H74.278a1.37 1.37 0 0 1-1.324-.985L54.188 31.658a1.39 1.39 0 0 1 1.333-1.826h196.312a1.39 1.39 0 0 1 1.333 1.826l-18.748 61.587a1.38 1.38 0 0 1-1.323.986"/><path fill="#fff" d="M96.33 45.845H65.872c-.757 0-1.25.402-1.104.913a1.66 1.66 0 0 0 1.606.913H96.66c.748 0 1.278-.401 1.196-.913-.083-.51-.776-.913-1.525-.913M97.34 51.405H71.436c-.74 0-1.223.393-1.095.913a1.615 1.615 0 0 0 1.56.913h25.804c.74 0 1.26-.393 1.177-.913s-.803-.913-1.542-.913"/><path fill="#fff" d="M98.328 56.773h-29.39c-.73 0-1.205.374-1.077.84a1.62 1.62 0 0 0 1.551.858H98.62c.721 0 1.241-.374 1.16-.84-.083-.465-.722-.858-1.452-.858" opacity=".5"/><path fill="#fff" d="M99.277 61.959h-17.26c-.712 0-1.205.365-1.096.812.11.447.776.813 1.488.813h17.169c.712 0 1.223-.366 1.141-.813s-.721-.812-1.442-.812M100.196 66.961H71.792c-.694 0-1.168.356-1.04.785s.784.786 1.487.786h28.295c.694 0 1.196-.347 1.123-.785s-.758-.786-1.461-.786M101.084 71.81H78.156c-.694 0-1.16.337-1.05.757s.757.758 1.442.758h22.818c.685 0 1.178-.338 1.105-.758s-.694-.758-1.387-.758M101.943 76.492H79.389c-.684 0-1.14.329-1.031.73.11.402.74.74 1.415.74h22.444c.675 0 1.159-.329 1.086-.74-.073-.41-.675-.73-1.36-.73M102.773 81.02H78.129c-.666 0-1.123.32-1.013.713s.73.712 1.396.712h24.489c.666 0 1.15-.32 1.077-.712-.073-.393-.63-.712-1.305-.712"/><path fill="#fff" d="M103.585 85.412H87.667c-.657 0-1.114.31-1.023.694s.703.684 1.351.684h15.818c.657 0 1.132-.31 1.068-.684s-.639-.694-1.296-.694M95.271 40.076h-22.7c-.766 0-1.278.42-1.14.913a1.65 1.65 0 0 0 1.615.913h22.563c.767 0 1.305-.42 1.214-.913a1.515 1.515 0 0 0-1.552-.913" opacity=".5"/><path fill="#fff" d="M94.165 34.096h-31.6c-.775 0-1.286.429-1.131.968a1.74 1.74 0 0 0 1.68.967H94.53c.767 0 1.323-.429 1.223-.967-.1-.539-.785-.968-1.588-.968M104.362 89.666H78.176c-.648 0-1.086.301-.986.666s.712.667 1.36.667h26.059c.639 0 1.113-.301 1.049-.666-.063-.366-.648-.667-1.296-.667"/><path fill="#fff" d="M107.027 47.872h5.906l-.292-2.255h-5.952zM107.848 53.359h5.805l-.283-2.173h-5.85zM108.644 58.663h5.705l-.274-2.1h-5.741zM109.416 63.785h5.604l-.274-2.036h-5.641zM110.157 68.723h5.513l-.264-1.953h-5.541zM110.878 73.507h5.413l-.247-1.89h-5.458zM111.569 78.145h5.33l-.237-1.844h-5.367zM112.237 82.618h5.249l-.229-1.771h-5.284zM112.892 86.964h5.166l-.228-1.726h-5.193zM106.167 42.184h6.015l-.301-2.346h-6.061zM105.281 36.278h6.125l-.311-2.429h-6.179zM113.524 91.163h5.084l-.219-1.67h-5.112z" opacity=".5"/><path fill="#fff" d="M144.658 81.733c0-.393.511-.712 1.178-.712h87.458c.667 0 1.123.32 1.004.712a1.48 1.48 0 0 1-1.405.712h-87.012c-.666 0-1.214-.32-1.223-.712M234.179 77.962h-48.43c-.675 0-1.186-.329-1.141-.74.046-.41.63-.73 1.315-.73h48.694c.676 0 1.132.329 1.014.73a1.49 1.49 0 0 1-1.452.74"/><path fill="#fff" d="M174.257 77.962h-15.061c-.675 0-1.223-.329-1.213-.74.009-.41.556-.73 1.241-.73h15.151c.676 0 1.205.329 1.169.73-.037.402-.612.74-1.287.74" opacity=".5"/><path fill="#fff" d="M205.693 73.325h-68.309c-.685 0-1.26-.338-1.287-.758-.028-.42.511-.758 1.205-.758h68.674c.685 0 1.187.338 1.105.758s-.694.758-1.388.758"/><path fill="#fff" d="M123.109 71.81h4.865c.684 0 1.277.337 1.314.757.036.42-.493.758-1.178.758h-4.846c-.685 0-1.278-.338-1.324-.758-.045-.42.475-.758 1.169-.758" opacity=".5"/><path fill="#fff" d="M215.577 67.747c-.091.438-.73.785-1.433.785h-64.366c-.703 0-1.269-.347-1.278-.785s.557-.786 1.251-.786h64.722c.703 0 1.196.356 1.104.785M122.589 66.961h18.255c.702 0 1.287.356 1.305.785s-.539.786-1.232.786h-18.164c-.694 0-1.296-.347-1.351-.785s.484-.786 1.187-.786M122.048 61.959h70.226c.712 0 1.242.365 1.178.812s-.685.813-1.397.813h-69.834c-.702 0-1.323-.366-1.369-.813-.045-.447.484-.812 1.196-.812M167.642 58.471c-.721 0-1.287-.374-1.269-.84s.621-.84 1.351-.84h37.048c.731 0 1.251.375 1.169.84-.082.466-.73.84-1.451.84zM121.504 56.773h32.065c.73 0 1.314.374 1.314.84s-.584.858-1.314.858h-31.882c-.73 0-1.351-.374-1.406-.84s.493-.858 1.223-.858M241.297 53.149h-88.271c-.73 0-1.333-.393-1.333-.913s.594-.913 1.333-.913h88.764c.739 0 1.223.392 1.086.913a1.65 1.65 0 0 1-1.579.913M242.833 47.644H165.25c-.749 0-1.342-.402-1.324-.913s.639-.913 1.397-.913h78.112c.749 0 1.241.402 1.095.913a1.68 1.68 0 0 1-1.697.913"/><path fill="#fff" d="M244.509 41.947h-16.283c-.767 0-1.287-.42-1.168-.913a1.61 1.61 0 0 1 1.606-.913h16.357c.766 0 1.268.42 1.113.913a1.71 1.71 0 0 1-1.625.913" opacity=".5"/><path fill="#fff" d="M216.865 41.947h-59.72c-.758 0-1.379-.42-1.37-.913.01-.493.621-.913 1.388-.913h60.113c.767 0 1.305.42 1.196.913a1.57 1.57 0 0 1-1.607.913M124.55 85.412h55.157c.657 0 1.159.31 1.113.694-.045.383-.593.684-1.25.684h-54.865c-.657 0-1.223-.31-1.26-.684s.448-.694 1.105-.694M125.005 89.666h84.739c.639 0 1.105.301 1.023.666s-.658.667-1.306.667h-84.31c-.648 0-1.204-.301-1.241-.666-.036-.366.447-.667 1.095-.667M213.899 36.031h-43.172c-.776 0-1.378-.429-1.351-.967.027-.539.675-.968 1.46-.968h43.428c.785 0 1.333.429 1.233.968a1.58 1.58 0 0 1-1.598.967"/><path fill="#fff" d="M158.53 36.031h-39.248c-.776 0-1.452-.429-1.516-.967-.063-.539.521-.968 1.306-.968h39.476c.776 0 1.405.429 1.396.968s-.639.967-1.414.967M191.937 85.412c.657 0 1.15.31 1.095.694s-.629.684-1.287.684h-4.262c-.648 0-1.141-.31-1.095-.684.045-.375.611-.694 1.268-.694zM139.63 81.733c0 .392-.502.712-1.168.712h-5.805c-.666 0-1.232-.32-1.259-.712-.028-.393.483-.712 1.15-.712h5.832c.675 0 1.232.32 1.25.712M209.679 62.771c-.082.447-.721.813-1.433.813h-6.79c-.712 0-1.223-.366-1.16-.813s.712-.812 1.424-.812h6.828c.712 0 1.223.365 1.131.812M230.869 66.961c.703 0 1.177.356 1.059.785a1.51 1.51 0 0 1-1.47.786h-5.413c-.702 0-1.177-.347-1.077-.785a1.495 1.495 0 0 1 1.461-.786zM142.339 53.149c-.73 0-1.342-.393-1.369-.913-.028-.52.566-.913 1.305-.913h5.759c.74 0 1.342.392 1.351.913.009.52-.584.913-1.314.913z" opacity=".5"/><path fill="#fff" d="M63.935 25.04a1.946 1.946 0 0 1-1.917 2.693 4.07 4.07 0 0 1-3.596-2.693 1.954 1.954 0 0 1 1.898-2.74 4.03 4.03 0 0 1 3.615 2.74M71.329 25.085a2 2 0 0 1-2.008 2.684 3.89 3.89 0 0 1-3.505-2.684 2.02 2.02 0 0 1 1.99-2.739 3.87 3.87 0 0 1 3.523 2.74M78.84 25.04a2.073 2.073 0 0 1-2.126 2.693 3.74 3.74 0 0 1-3.423-2.693 2.082 2.082 0 0 1 2.081-2.74 3.71 3.71 0 0 1 3.469 2.74"/><path fill="#fff" stroke="#263238" stroke-linecap="round" stroke-linejoin="round" d="M72.413 136.162h-19.25a4.563 4.563 0 0 0-4.563 4.564v9.376a4.565 4.565 0 0 0 4.563 4.565h5.03l3.815 8.645 5.376-8.645h5.029a4.563 4.563 0 0 0 4.564-4.565v-9.412a4.565 4.565 0 0 0-4.564-4.528"/><path fill="#263238" d="M60.113 141.548a.916.916 0 0 1 1.537-.669c.17.158.273.374.289.605a.916.916 0 0 1-1.537.669.91.91 0 0 1-.289-.605m.201 1.908h1.47v6.263h-1.497zM65.315 143.109v.374h1.725v1.178h-1.67v5.039h-1.433v-5.039h-1.068v-1.178h1.068v-.401a2.02 2.02 0 0 1 2.236-2.164c.468-.024.933.094 1.333.338l-.41 1.105a1.45 1.45 0 0 0-.813-.256c-.648 0-.968.356-.968 1.004"/><path fill="#fff" stroke="#263238" stroke-linecap="round" stroke-linejoin="round" d="M131.033 137.476h-19.258a4.56 4.56 0 0 0-4.564 4.565v9.367a4.564 4.564 0 0 0 4.564 4.564h5.038l3.806 8.646 5.376-8.646h5.038a4.565 4.565 0 0 0 4.564-4.564v-9.404a4.567 4.567 0 0 0-4.564-4.528"/><path fill="#263238" d="M115.825 148.349h-4.92a1.91 1.91 0 0 0 2.036 1.507 2.25 2.25 0 0 0 1.697-.685l.785.913a3.514 3.514 0 0 1-5.978-2.191 3.113 3.113 0 0 1 3.231-3.205 3.05 3.05 0 0 1 3.167 3.241c0 .101-.009.283-.018.42m-4.929-.967h3.551a1.71 1.71 0 0 0-1.771-1.534 1.72 1.72 0 0 0-1.191.417 1.72 1.72 0 0 0-.589 1.117M117.247 142.315h1.451v8.7h-1.469zM119.926 150.394l.557-1.113a4.2 4.2 0 0 0 2.181.62c.913 0 1.314-.255 1.314-.694 0-1.195-3.87-.073-3.87-2.565 0-1.187 1.068-1.963 2.739-1.963a5 5 0 0 1 2.345.539l-.566 1.114a3.45 3.45 0 0 0-1.825-.466c-.913 0-1.314.292-1.314.703 0 1.269 3.87.137 3.87 2.593 0 1.168-1.077 1.935-2.839 1.935a5 5 0 0 1-2.592-.703M132.538 148.349h-4.92a1.91 1.91 0 0 0 2.035 1.507 2.25 2.25 0 0 0 1.698-.685l.785.913a3.511 3.511 0 0 1-5.269-.358 3.5 3.5 0 0 1-.709-1.833 3.113 3.113 0 0 1 3.231-3.205 3.05 3.05 0 0 1 2.983 1.987c.148.4.211.828.184 1.254 0 .101-.009.283-.018.42m-4.929-.967h3.55a1.7 1.7 0 0 0-1.77-1.534 1.723 1.723 0 0 0-1.78 1.534"/><path fill="#fff" stroke="#263238" stroke-linecap="round" stroke-linejoin="round" d="M187.858 136.919h-19.259a4.563 4.563 0 0 0-4.564 4.565v9.376a4.567 4.567 0 0 0 4.564 4.565h5.038l3.806 8.645 5.376-8.645h5.039a4.564 4.564 0 0 0 4.563-4.565v-9.412a4.563 4.563 0 0 0-4.563-4.529"/><path fill="#263238" d="M173.015 143.867v.42h1.725v1.177h-1.679v5.04h-1.424v-5.04h-1.032v-1.177h1.032v-.402a2.01 2.01 0 0 1 .608-1.609 2.03 2.03 0 0 1 1.628-.555c.465-.022.926.095 1.324.338l-.411 1.105a1.4 1.4 0 0 0-.803-.265c-.648-.046-.968.301-.968.968M175.118 147.327a3.335 3.335 0 0 1 1.973-3.178 3.342 3.342 0 1 1 1.358 6.391 3.14 3.14 0 0 1-2.369-.877 3.16 3.16 0 0 1-.962-2.336m5.193 0a1.826 1.826 0 1 0-3.643.257 1.826 1.826 0 0 0 3.643-.257M186.81 144.122v1.397a2.4 2.4 0 0 0-.337 0 1.71 1.71 0 0 0-1.826 1.936v3.04h-1.469v-6.3h1.396v.913a2.48 2.48 0 0 1 2.236-.986"/><path fill="#fff" stroke="#263238" stroke-linecap="round" stroke-linejoin="round" d="M243.868 136.162h-19.287a4.564 4.564 0 0 0-4.563 4.564v9.376a4.564 4.564 0 0 0 4.563 4.565h5.039l3.806 8.645 5.376-8.645h5.038a4.563 4.563 0 0 0 4.564-4.565v-9.412a4.563 4.563 0 0 0-4.536-4.528"/><path fill="#263238" d="M231.732 143.127h5.404v1.16h-5.404zm0 2.84h5.404v1.177h-5.404z"/><path fill="#fff" stroke="#263238" stroke-linecap="round" stroke-linejoin="round" d="M101.768 125.325H82.509a4.563 4.563 0 0 0-4.564 4.565v9.367a4.564 4.564 0 0 0 4.564 4.564h5.038l3.807 8.646 5.376-8.646h5.038a4.564 4.564 0 0 0 4.564-4.564v-9.404a4.566 4.566 0 0 0-4.564-4.528"/><path fill="#263238" d="M87.613 129.214h2.793v1.178h-1.332v8.627h1.332v1.178h-2.793zM94.057 140.197v-1.178h1.323v-8.627h-1.323v-1.178h2.738v10.955z"/><path fill="#fff" stroke="#263238" stroke-linecap="round" stroke-linejoin="round" d="M159.016 124.367h-19.259a4.564 4.564 0 0 0-4.564 4.564v9.33a4.565 4.565 0 0 0 4.564 4.565h5.038l3.816 8.646 5.376-8.646h5.029a4.564 4.564 0 0 0 4.564-4.565v-9.366a4.565 4.565 0 0 0-4.564-4.528"/><path fill="#263238" d="M145.472 133.706c.465.155.693.475.693 1.196v2.237a.79.79 0 0 0 .508.872.8.8 0 0 0 .36.04h.246v1.178h-.593c-.264.04-.534.018-.788-.064a1.73 1.73 0 0 1-1.109-1.068 1.7 1.7 0 0 1-.093-.785v-2.41c0-.393-.201-.566-.529-.566h-.384v-1.196h.384c.328 0 .529-.174.529-.566v-2.419a1.733 1.733 0 0 1 1.99-1.908h.593v1.177h-.283a.78.78 0 0 0-.667.235.77.77 0 0 0-.2.678v2.228c.036.675-.192.995-.657 1.141M154.416 133.112v1.196h-.401c-.32 0-.52.174-.52.566v2.411a1.76 1.76 0 0 1-.53 1.448 1.76 1.76 0 0 1-1.469.469h-.594v-1.178h.247a.795.795 0 0 0 .913-.913v-2.237c0-.721.209-1.04.675-1.196-.466-.146-.675-.465-.675-1.195v-2.228a.8.8 0 0 0-.218-.696.79.79 0 0 0-.695-.217h-.247v-1.123h.594a1.74 1.74 0 0 1 1.902 1.123c.092.251.125.52.097.785v2.419c0 .393.2.566.52.566z"/><path fill="#fff" stroke="#263238" stroke-linecap="round" stroke-linejoin="round" d="M215.66 122.468h-19.258a4.56 4.56 0 0 0-4.564 4.564v9.367a4.565 4.565 0 0 0 4.564 4.565h5.029l3.815 8.645 5.376-8.645h5.038a4.56 4.56 0 0 0 4.564-4.565v-9.403a4.566 4.566 0 0 0-4.564-4.528"/><path fill="#263238" d="M205.264 129.397a.96.96 0 0 1 .247-.744.967.967 0 0 1 1.679.744.98.98 0 0 1-.246.744.961.961 0 0 1-1.109.234.959.959 0 0 1-.571-.978m1.926 4.473c-.025.35-.118.691-.274 1.004l-.602 1.662h-.913l.475-1.826a.93.93 0 0 1-.413-.347.9.9 0 0 1-.144-.52.954.954 0 0 1 1.908 0z"/><path fill="#fff" stroke="#263238" stroke-linecap="round" stroke-linejoin="round" d="M140.378 286.284h19.25a4.564 4.564 0 0 0 4.564-4.564v-9.34a4.57 4.57 0 0 0-4.564-4.519h-5.029l-1.47-8.645-7.722 8.645h-5.029a4.566 4.566 0 0 0-4.564 4.519v9.376a4.566 4.566 0 0 0 4.564 4.528"/><path fill="#263238" d="m147.142 275.146-4.044 1.516 4.044 1.515v1.224l-5.404-2.1v-1.278l5.404-2.1zM151.411 270.883h1.305l-3.897 11.056h-1.278zM158.405 276.023v1.269l-5.404 2.1v-1.224l4.035-1.506-4.044-1.506v-1.233z"/><path fill="#fff" stroke="#263238" stroke-linecap="round" stroke-linejoin="round" d="M17.962 218.042h19.25a4.563 4.563 0 0 0 4.564-4.564v-9.33a4.565 4.565 0 0 0-4.564-4.565h-5.03l1.096-8.645-10.287 8.645h-5.029a4.564 4.564 0 0 0-4.564 4.565v9.366a4.563 4.563 0 0 0 4.564 4.528"/><path fill="#263238" d="M23.664 212.099a.911.911 0 1 1 1.825 0 .914.914 0 1 1-1.825 0m.11-7.376h1.734l-.292 5.477h-1.187zM26.998 206.823h5.403V208h-5.403zm0 2.839h5.403v1.177h-5.403z"/></svg>