<svg width="72" height="72" viewBox="0 0 72 72" fill="none" xmlns="http://www.w3.org/2000/svg">
<path d="M63.5549 10.7076V62.8193C63.5549 64.1874 62.4474 65.2949 61.0793 65.2949H10.9742C9.60613 65.2949 8.49862 64.1874 8.49862 62.8193V59.575C7.16314 59.575 5.9514 59.0277 5.0784 58.1548C4.19245 57.2818 3.6582 56.0635 3.6582 54.728H8.49862V10.7076C8.49862 9.33956 9.60613 8.23205 10.9742 8.23205H61.0793C62.4476 8.23205 63.5549 9.33956 63.5549 10.7076Z" fill="white"/>
<path d="M8.68829 58.9964C6.12721 58.9964 4.87716 55.9475 4.57227 54.423L54.4219 53.9657C55.3633 57.7312 57.4933 58.8503 58.85 58.9964H59.4526C59.279 59.0181 59.0752 59.0206 58.85 58.9964H8.68829Z" fill="#38BFF2"/>
<path d="M19.1815 27.4402C17.0222 27.4402 15.2656 29.193 15.2656 31.3471C15.2656 33.502 17.0222 35.2548 19.1815 35.2548C21.3358 35.2548 23.0884 33.502 23.0884 31.3471C23.0884 29.193 21.3358 27.4402 19.1815 27.4402Z" fill="#38BFF2"/>
<path d="M19.1815 27.4402C17.0222 27.4402 15.2656 29.193 15.2656 31.3471C15.2656 33.5019 17.0222 35.2547 19.1815 35.2547C21.3358 35.2547 23.0884 33.5019 23.0884 31.3471C23.0884 29.193 21.3358 27.4402 19.1815 27.4402ZM19.1815 33.9517C17.7408 33.9517 16.5686 32.7831 16.5686 31.3471C16.5686 29.9112 17.7408 28.743 19.1815 28.743C20.6174 28.743 21.7856 29.9112 21.7856 31.3471C21.7856 32.7831 20.6174 33.9517 19.1815 33.9517Z" fill="#1A2E35"/>
<path d="M30.7518 27.4402C28.5925 27.4402 26.8359 29.193 26.8359 31.3471C26.8359 33.5019 28.5925 35.2547 30.7518 35.2547C32.9063 35.2547 34.659 33.5019 34.659 31.3471C34.6592 29.193 32.9063 27.4402 30.7518 27.4402Z" fill="#38BFF2"/>
<path d="M30.7518 27.4402C28.5925 27.4402 26.8359 29.193 26.8359 31.3471C26.8359 33.5019 28.5925 35.2547 30.7518 35.2547C32.9063 35.2547 34.659 33.5019 34.659 31.3471C34.6592 29.193 32.9063 27.4402 30.7518 27.4402ZM30.7518 33.9517C29.3111 33.9517 28.139 32.7831 28.139 31.3471C28.139 29.9112 29.3111 28.743 30.7518 28.743C32.1877 28.743 33.3562 29.9112 33.3562 31.3471C33.3562 32.7831 32.1877 33.9517 30.7518 33.9517Z" fill="#1A2E35"/>
<path d="M42.3241 27.5184C40.1648 27.5184 38.4082 29.2712 38.4082 31.4254C38.4082 33.5802 40.1648 35.333 42.3241 35.333C44.4786 35.333 46.2313 33.5802 46.2313 31.4254C46.2313 29.2712 44.4786 27.5184 42.3241 27.5184Z" fill="#38BFF2"/>
<path d="M42.3241 27.4402C40.1648 27.4402 38.4082 29.193 38.4082 31.3471C38.4082 33.5019 40.1648 35.2547 42.3241 35.2547C44.4786 35.2547 46.2313 33.5019 46.2313 31.3471C46.2313 29.193 44.4786 27.4402 42.3241 27.4402ZM42.3241 33.9517C40.8834 33.9517 39.7112 32.7831 39.7112 31.3471C39.7112 29.9112 40.8834 28.743 42.3241 28.743C43.76 28.743 44.9284 29.9112 44.9284 31.3471C44.9283 32.7831 43.76 33.9517 42.3241 33.9517Z" fill="#1A2E35"/>
<path d="M53.8944 35.2547C56.0489 35.2547 57.8016 33.5019 57.8016 31.3471C57.8016 29.1928 56.0488 27.4402 53.8944 27.4402C51.7351 27.4402 49.9785 29.193 49.9785 31.3471C49.9785 33.5019 51.7351 35.2547 53.8944 35.2547Z" fill="#38BFF2"/>
<path d="M53.8944 35.2547C56.0489 35.2547 57.8016 33.5019 57.8016 31.3471C57.8016 29.1928 56.0488 27.4402 53.8944 27.4402C51.7351 27.4402 49.9785 29.193 49.9785 31.3471C49.9785 33.5019 51.7351 35.2547 53.8944 35.2547ZM53.8944 28.7432C55.3303 28.7432 56.4987 29.9113 56.4987 31.3472C56.4987 32.7832 55.3303 33.9519 53.8944 33.9519C52.4537 33.9519 51.2815 32.7832 51.2815 31.3472C51.2815 29.9112 52.4537 28.7432 53.8944 28.7432Z" fill="#1A2E35"/>
<path d="M19.1815 38.4162C17.0222 38.4162 15.2656 40.169 15.2656 42.3239C15.2656 44.4781 17.0222 46.2308 19.1815 46.2308C21.3358 46.2308 23.0884 44.478 23.0884 42.3239C23.0884 40.169 21.3358 38.4162 19.1815 38.4162Z" fill="#38BFF2"/>
<path d="M19.1815 38.4162C17.0222 38.4162 15.2656 40.169 15.2656 42.3239C15.2656 44.4781 17.0222 46.2308 19.1815 46.2308C21.3358 46.2308 23.0884 44.478 23.0884 42.3239C23.0884 40.169 21.3358 38.4162 19.1815 38.4162ZM19.1815 44.9278C17.7408 44.9278 16.5686 43.7597 16.5686 42.3237C16.5686 40.8878 17.7408 39.7191 19.1815 39.7191C20.6174 39.7191 21.7856 40.8878 21.7856 42.3237C21.7856 43.7597 20.6174 44.9278 19.1815 44.9278Z" fill="#1A2E35"/>
<path d="M30.7518 38.4162C28.5925 38.4162 26.8359 40.169 26.8359 42.3239C26.8359 44.4781 28.5925 46.2308 30.7518 46.2308C32.9063 46.2308 34.659 44.478 34.659 42.3239C34.6592 40.169 32.9063 38.4162 30.7518 38.4162Z" fill="#38BFF2"/>
<path d="M30.7518 38.4162C28.5925 38.4162 26.8359 40.169 26.8359 42.3239C26.8359 44.4781 28.5925 46.2308 30.7518 46.2308C32.9063 46.2308 34.659 44.478 34.659 42.3239C34.6592 40.169 32.9063 38.4162 30.7518 38.4162ZM30.7518 44.9278C29.3111 44.9278 28.139 43.7597 28.139 42.3237C28.139 40.8878 29.3111 39.7191 30.7518 39.7191C32.1877 39.7191 33.3562 40.8878 33.3562 42.3237C33.3562 43.7597 32.1877 44.9278 30.7518 44.9278Z" fill="#1A2E35"/>
<path d="M42.3241 38.4162C40.1648 38.4162 38.4082 40.1691 38.4082 42.3239C38.4082 44.4781 40.1648 46.2308 42.3241 46.2308C44.4786 46.2308 46.2313 44.478 46.2313 42.3239C46.2313 40.1691 44.4786 38.4162 42.3241 38.4162ZM42.3241 44.9278C40.8834 44.9278 39.7112 43.7597 39.7112 42.3237C39.7112 40.8878 40.8834 39.7191 42.3241 39.7191C43.76 39.7191 44.9284 40.8878 44.9284 42.3237C44.9284 43.7597 43.76 44.9278 42.3241 44.9278Z" fill="#1A2E35"/>
<path d="M57.8016 42.3239C57.8016 40.1691 56.0488 38.4162 53.8944 38.4162C51.7351 38.4162 49.9785 40.1691 49.9785 42.3239C49.9785 44.4781 51.7351 46.2308 53.8944 46.2308C56.0489 46.2308 57.8016 44.478 57.8016 42.3239ZM53.8944 44.9278C52.4537 44.9278 51.2815 43.7597 51.2815 42.3237C51.2815 40.8878 52.4537 39.7191 53.8944 39.7191C55.3303 39.7191 56.4987 40.8878 56.4987 42.3237C56.4987 43.7597 55.3303 44.9278 53.8944 44.9278Z" fill="#1A2E35"/>
<path d="M61.5857 7.01795H56.357V3.49337C56.357 3.1333 56.0654 2.84193 55.7056 2.84193C55.3458 2.84193 55.0542 3.1333 55.0542 3.49337V7.01795H16.4582V3.49337C16.4582 3.1333 16.1666 2.84193 15.8068 2.84193C15.447 2.84193 15.1554 3.1333 15.1554 3.49337V7.01795H11.4822C9.75812 7.01795 8.35562 8.42073 8.35562 10.145C8.35534 15.8753 8.35367 53.2717 8.35367 53.516H4.16315C3.80337 53.516 3.51172 53.8074 3.51172 54.1674C3.51172 57.0601 5.69581 59.306 8.35353 59.6198V62.2568C8.35353 63.9809 9.75631 65.3838 11.4806 65.3838H61.5858C63.3099 65.3838 64.7128 63.9811 64.7128 62.2568C64.7128 50.7671 64.7128 21.0516 64.7128 10.145C64.7127 8.42073 63.3099 7.01795 61.5857 7.01795ZM11.4821 8.32096H15.1552V13.4908C15.1552 13.8509 15.4469 14.1422 15.8067 14.1422C16.1664 14.1422 16.4581 13.8509 16.4581 13.4908V8.32096H55.054V13.4908C55.054 13.8509 55.3457 14.1422 55.7055 14.1422C56.0653 14.1422 56.3569 13.8509 56.3569 13.4908V8.32096H61.5855C62.5913 8.32096 63.4096 9.1392 63.4096 10.145V18.6601H9.65835V10.1448C9.65835 9.13906 10.4766 8.32096 11.4821 8.32096ZM9.65654 19.9635H63.4098V54.1655C63.4098 56.4779 61.5319 58.3592 59.2232 58.3605C59.2211 58.3605 59.2196 58.3593 59.2175 58.3593C56.9026 58.3593 55.0255 56.4832 55.0255 54.1673C55.0255 53.8072 54.7338 53.5159 54.374 53.5159H9.65654V19.9635ZM4.8642 54.8189H53.7606C53.9238 56.2063 54.6046 57.4576 55.6655 58.3593H9.00691C6.89737 58.3593 5.16936 56.8054 4.8642 54.8189ZM63.4097 62.2568C63.4097 63.2626 62.5915 64.0808 61.5857 64.0808H11.4806C10.4748 64.0808 9.65654 63.2627 9.65654 62.2568V59.6636H59.2207C60.899 59.6636 62.4017 58.9042 63.4098 57.7128V62.2568H63.4097Z" fill="#1A2E35"/>
</svg>
