<svg width="18" height="18" viewBox="0 0 18 18" fill="none" xmlns="http://www.w3.org/2000/svg">
<path d="M13.022 0H4.83326C2.16817 0 0 2.16815 0 4.83324V13.0221C0 15.6871 2.16817 17.8553 4.83326 17.8553H13.0222C15.687 17.8553 17.8552 15.6871 17.8552 13.0221V4.83324C17.8552 2.16815 15.687 0 13.022 0ZM8.92761 13.8098C6.23555 13.8098 4.04548 11.6197 4.04548 8.92761C4.04548 6.23553 6.23555 4.04546 8.92761 4.04546C11.6197 4.04546 13.8099 6.23553 13.8099 8.92761C13.8099 11.6197 11.6197 13.8098 8.92761 13.8098ZM13.9265 5.19684C13.131 5.19684 12.4839 4.54976 12.4839 3.75421C12.4839 2.95867 13.131 2.31145 13.9265 2.31145C14.7221 2.31145 15.3692 2.95867 15.3692 3.75421C15.3692 4.54976 14.7221 5.19684 13.9265 5.19684Z" fill="white"/>
<path d="M8.92719 5.09253C6.81243 5.09253 5.0918 6.81304 5.0918 8.92793C5.0918 11.0427 6.81243 12.7634 8.92719 12.7634C11.0421 12.7634 12.7625 11.0427 12.7625 8.92793C12.7625 6.81304 11.0421 5.09253 8.92719 5.09253Z" fill="white"/>
<path d="M13.9271 3.35815C13.7089 3.35815 13.5312 3.53579 13.5312 3.75402C13.5312 3.97226 13.7089 4.1499 13.9271 4.1499C14.1454 4.1499 14.3232 3.97238 14.3232 3.75402C14.3232 3.53565 14.1454 3.35815 13.9271 3.35815Z" fill="white"/>
</svg>
