<svg width="60" height="68" viewBox="0 0 60 68" fill="none" xmlns="http://www.w3.org/2000/svg">
<g clip-path="url(#clip0_28611_66)">
<g filter="url(#filter0_f_28611_66)">
<path d="M30.51 56.523C30.5041 56.6516 30.4488 56.7729 30.3557 56.8618C30.2625 56.9506 30.1387 57.0001 30.01 57C29.72 57 29.5 56.79 29.49 56.523C29.345 53.355 27.734 51.306 24.658 50.376C14.53 47.968 7 38.863 7 28C7 15.297 17.297 5 30 5C42.703 5 53 15.297 53 28C53 38.863 45.47 47.968 35.342 50.376C32.266 51.306 30.655 53.356 30.512 56.523H30.51Z" fill="#FF3333"/>
</g>
<path d="M30.51 56.523C30.5041 56.6516 30.4488 56.7729 30.3557 56.8618C30.2625 56.9506 30.1387 57.0001 30.01 57C29.72 57 29.5 56.79 29.49 56.523C29.345 53.355 27.734 51.306 24.658 50.376C14.53 47.968 7 38.863 7 28C7 15.297 17.297 5 30 5C42.703 5 53 15.297 53 28C53 38.863 45.47 47.968 35.342 50.376C32.266 51.306 30.655 53.356 30.512 56.523H30.51Z" fill="#FF3333"/>
<path d="M30 68C27.79 68 26 66.21 26 64C26 61.79 27.79 60 30 60C32.21 60 34 61.79 34 64C34 66.21 32.21 68 30 68Z" fill="white"/>
<path fill-rule="evenodd" clip-rule="evenodd" d="M29.9997 66C30.266 66.006 30.5309 65.9588 30.7787 65.861C31.0266 65.7633 31.2524 65.617 31.4429 65.4308C31.6334 65.2446 31.7848 65.0222 31.8882 64.7766C31.9916 64.5311 32.0449 64.2674 32.0449 64.001C32.045 63.7346 31.9918 63.4708 31.8886 63.2253C31.7853 62.9797 31.634 62.7572 31.4436 62.5709C31.2532 62.3846 31.0274 62.2382 30.7797 62.1403C30.5319 62.0425 30.267 61.9951 30.0007 62.001C29.4781 62.0125 28.9809 62.2282 28.6153 62.6018C28.2498 62.9754 28.0451 63.4773 28.0449 64C28.0448 64.5227 28.2493 65.0246 28.6146 65.3984C28.98 65.7722 29.4772 65.9882 29.9997 66Z" fill="#FF3333"/>
<path d="M44.416 40.125H18.5827" stroke="white" stroke-width="2" stroke-linecap="round" stroke-linejoin="round"/>
<path d="M37.959 29.7917H40.5423C41.2557 29.7917 41.834 30.37 41.834 31.0834V38.8334C41.834 39.5468 41.2557 40.1251 40.5423 40.1251H37.959C37.2456 40.1251 36.6673 39.5468 36.6673 38.8334V31.0834C36.6673 30.37 37.2456 29.7917 37.959 29.7917Z" stroke="white" stroke-width="2" stroke-linejoin="round"/>
<path d="M39.25 34.9583H38.6042" stroke="white" stroke-width="2" stroke-linecap="round" stroke-linejoin="round"/>
<path d="M22.4577 15.5833H35.3743C36.0877 15.5833 36.666 16.1616 36.666 16.8749V38.8333C36.666 39.5466 36.0877 40.1249 35.3743 40.1249H22.4577C21.7443 40.1249 21.166 39.5466 21.166 38.8333V16.8749C21.166 16.1616 21.7443 15.5833 22.4577 15.5833Z" stroke="white" stroke-width="2" stroke-linejoin="round"/>
<path d="M30.2077 19.4583H32.791V22.0416H30.2077V19.4583Z" fill="white"/>
<path d="M25.0417 19.4583H27.625V22.0416H25.0417V19.4583Z" fill="white"/>
<path d="M30.2077 23.9792H32.791V26.5626H30.2077V23.9792Z" fill="white"/>
<path d="M25.0417 23.9792H27.625V26.5626H25.0417V23.9792Z" fill="white"/>
<path d="M25.0417 28.5H27.625V31.0833H25.0417V28.5Z" fill="white"/>
<path d="M25.0417 33.0208H27.625V35.6041H25.0417V33.0208Z" fill="white"/>
</g>
<defs>
<filter id="filter0_f_28611_66" x="1" y="-1" width="58" height="64" filterUnits="userSpaceOnUse" color-interpolation-filters="sRGB">
<feFlood flood-opacity="0" result="BackgroundImageFix"/>
<feBlend mode="normal" in="SourceGraphic" in2="BackgroundImageFix" result="shape"/>
<feGaussianBlur stdDeviation="3" result="effect1_foregroundBlur_28611_66"/>
</filter>
<clipPath id="clip0_28611_66">
<rect width="60" height="68" fill="white"/>
</clipPath>
</defs>
</svg>
