<svg width="370" height="322" viewBox="0 0 370 322" fill="none" xmlns="http://www.w3.org/2000/svg">
<path d="M289.426 209.622C283.573 214.488 285.513 242.883 267.414 230.655C249.316 218.426 280.186 211.173 278.42 204.242C275.949 194.537 235.131 206.198 241.979 187.611C248.827 169.023 273.229 196.977 279.643 190.057C285.536 183.7 256.164 160.709 269.861 156.795C283.557 152.881 280.607 186.147 289.426 186.144C296.287 186.141 295.01 154.349 307.626 165.599C320.242 176.85 292.664 187.934 296.275 194.915C299.017 200.222 320.731 187.122 319.753 199.351C318.775 211.578 295.582 204.505 289.426 209.622Z" fill="#38BFF2"/>
<path d="M285.516 195.08C285.516 195.08 298.723 211.09 297.255 254.624" stroke="#1A2E35" stroke-width="1.33333" stroke-miterlimit="10" stroke-linecap="round" stroke-linejoin="round"/>
<path d="M259.784 217.732C262.124 213.023 281.522 209.809 270.422 199.586C259.321 189.365 259.357 211.272 254.415 211.188C247.498 211.071 248.844 181.773 237.437 189.336C226.03 196.896 248.705 208.853 245.074 214.267C241.737 219.24 221.607 203.152 221.155 212.982C220.703 222.813 242.598 215.538 243.999 221.467C245.089 226.08 223.513 230.28 233.083 236.971C242.654 243.662 245.718 223.358 250.986 224.675C254.99 225.675 249.638 242.358 257.703 239.754C265.768 237.151 257.323 222.684 259.784 217.732Z" fill="#38BFF2"/>
<g opacity="0.300003">
<g opacity="0.300003">
<path opacity="0.300003" d="M259.784 217.732C262.124 213.023 281.522 209.809 270.422 199.586C259.321 189.365 259.357 211.272 254.415 211.187C247.498 211.07 248.844 181.773 237.437 189.336C226.03 196.896 248.705 208.853 245.074 214.267C241.737 219.24 221.607 203.152 221.155 212.982C220.703 222.813 242.598 215.538 243.999 221.467C245.089 226.08 223.513 230.28 233.083 236.971C242.654 243.662 245.718 223.358 250.986 224.675C254.99 225.675 249.638 242.358 257.703 239.754C265.768 237.151 257.323 222.683 259.784 217.732Z" fill="black"/>
</g>
</g>
<path d="M249.806 217.938C249.806 217.938 287.391 214.024 291.1 254.623" stroke="#1A2E35" stroke-width="1.33333" stroke-miterlimit="10" stroke-linecap="round" stroke-linejoin="round"/>
<path d="M321.459 213.535C327.312 218.401 325.373 246.796 343.471 234.568C361.569 222.339 330.701 215.087 332.465 208.155C334.937 198.45 375.754 210.111 368.906 191.524C362.058 172.936 337.657 200.89 331.242 193.97C325.35 187.613 354.721 164.622 341.026 160.708C327.329 156.795 330.278 190.061 321.459 190.057C314.598 190.054 315.875 158.262 303.26 169.512C290.643 180.763 318.221 191.847 314.612 198.828C311.868 204.135 290.155 191.035 291.132 203.263C292.111 215.491 315.304 208.418 321.459 213.535Z" fill="#38BFF2"/>
<g opacity="0.300003">
<g opacity="0.300003">
<path opacity="0.300003" d="M321.461 213.535C327.314 218.401 325.375 246.796 343.473 234.568C361.571 222.339 330.703 215.087 332.467 208.155C334.939 198.45 375.756 210.111 368.908 191.524C362.06 172.936 337.659 200.89 331.244 193.97C325.352 187.613 354.723 164.622 341.028 160.708C327.331 156.795 330.28 190.061 321.461 190.057C314.6 190.054 315.877 158.262 303.262 169.512C290.645 180.763 318.223 191.847 314.614 198.828C311.87 204.135 290.157 191.035 291.134 203.264C292.113 215.492 315.306 208.418 321.461 213.535Z" fill="white"/>
</g>
</g>
<path d="M325.625 198.993C325.625 198.993 308.505 221.851 304.592 260.004" stroke="#1A2E35" stroke-width="1.33333" stroke-miterlimit="10" stroke-linecap="round" stroke-linejoin="round"/>
<path d="M313.366 319.688H286.678C281.569 319.688 277.31 315.776 276.877 310.685L272.682 261.38C272.193 255.64 276.722 250.71 282.483 250.71H317.561C323.322 250.71 327.851 255.64 327.362 261.38L323.166 310.685C322.734 315.776 318.475 319.688 313.366 319.688Z" fill="#38BFF2"/>
<path d="M313.366 319.688H286.678C281.569 319.688 277.31 315.776 276.877 310.685L272.682 261.38C272.193 255.64 276.722 250.71 282.483 250.71H317.561C323.322 250.71 327.851 255.64 327.362 261.38L323.166 310.685C322.734 315.776 318.475 319.688 313.366 319.688Z" stroke="#1A2E35" stroke-width="1.33333" stroke-miterlimit="10" stroke-linecap="round" stroke-linejoin="round"/>
<path d="M113.535 248.873C122.453 248.873 148.219 243.052 148.219 243.052H78.8503C78.8503 243.052 104.616 248.873 113.535 248.873Z" fill="#1A2E35"/>
<path d="M113.535 248.873C122.453 248.873 148.219 243.052 148.219 243.052H78.8503C78.8503 243.052 104.616 248.873 113.535 248.873Z" stroke="#1A2E35" stroke-width="1.33333" stroke-miterlimit="10" stroke-linecap="round" stroke-linejoin="round"/>
<path d="M105.585 256.858H121.48V245.962H105.585V256.858Z" fill="#868686" stroke="#1A2E35" stroke-width="1.33333" stroke-miterlimit="10" stroke-linecap="round" stroke-linejoin="round"/>
<path d="M103.235 303.71H123.834V256.858H103.235V303.71Z" fill="#9A9A9A" stroke="#1A2E35" stroke-width="1.33333" stroke-miterlimit="10" stroke-linecap="round" stroke-linejoin="round"/>
<path d="M74.8441 229.156H88.2305C86.7433 219.933 85.6458 210.534 84.969 201.217H71.5817C72.2585 210.534 73.357 219.933 74.8441 229.156Z" fill="#868686"/>
<path d="M74.8441 229.156H88.2305C86.7433 219.933 85.6458 210.534 84.969 201.217H71.5817C72.2585 210.534 73.357 219.933 74.8441 229.156Z" stroke="#1A2E35" stroke-width="1.33333" stroke-miterlimit="10" stroke-linecap="round" stroke-linejoin="round"/>
<path d="M54.5125 118.703H112.218C119.001 118.703 123.439 124.43 122.128 131.18C118.433 151.955 116.25 172.492 115.53 193.589C115.421 199.702 110.769 204.424 104.652 204.424H56.075C49.9582 204.424 44.4514 199.702 43.6663 193.589C41.3263 172.717 40.4811 152.182 41.1348 131.18C41.4558 124.43 47.7284 118.703 54.5125 118.703Z" fill="#868686"/>
<path d="M54.5125 118.703H112.218C119.001 118.703 123.439 124.43 122.128 131.18C118.433 151.955 116.25 172.492 115.53 193.589C115.421 199.702 110.769 204.424 104.652 204.424H56.075C49.9582 204.424 44.4514 199.702 43.6663 193.589C41.3263 172.717 40.4812 152.182 41.1348 131.18C41.4558 124.43 47.7284 118.703 54.5125 118.703Z" stroke="#1A2E35" stroke-width="1.33333" stroke-miterlimit="10" stroke-linecap="round" stroke-linejoin="round"/>
<path d="M51.3689 131.18C50.7143 152.182 51.5604 172.717 53.9004 193.589C54.6855 199.702 60.1923 204.424 66.3091 204.424H104.651C110.769 204.424 115.421 199.702 115.529 193.589C116.25 172.492 118.433 151.954 122.128 131.18C123.439 124.43 119.001 118.703 112.218 118.703H64.7466C57.9615 118.703 51.6899 124.43 51.3689 131.18Z" fill="#9A9A9A"/>
<path d="M51.3689 131.18C50.7143 152.182 51.5604 172.717 53.9004 193.589C54.6855 199.702 60.1923 204.424 66.3091 204.424H104.651C110.769 204.424 115.421 199.702 115.529 193.589C116.25 172.492 118.433 151.954 122.128 131.18C123.439 124.43 119.001 118.703 112.218 118.703H64.7466C57.9615 118.703 51.6899 124.43 51.3689 131.18Z" stroke="#1A2E35" stroke-width="1.33333" stroke-miterlimit="10" stroke-linecap="round" stroke-linejoin="round"/>
<path d="M78.8503 312.12C78.8503 313.219 79.8627 314.037 80.937 313.803C87.2492 312.427 106.157 308.444 113.535 308.444C120.911 308.444 139.82 312.427 146.132 313.803C147.206 314.037 148.219 313.219 148.219 312.12C148.219 309.989 146.735 308.15 144.652 307.702C137.262 306.114 120.403 302.663 113.535 302.663C106.667 302.663 89.8067 306.114 82.4174 307.702C80.3336 308.15 78.8503 309.989 78.8503 312.12Z" fill="#1A2E35"/>
<path d="M78.8503 312.12C78.8503 313.219 79.8627 314.037 80.937 313.803C87.2492 312.427 106.157 308.444 113.535 308.444C120.911 308.444 139.82 312.427 146.132 313.803C147.206 314.037 148.219 313.219 148.219 312.12C148.219 309.989 146.735 308.15 144.652 307.702C137.262 306.114 120.403 302.663 113.535 302.663C106.667 302.663 89.8067 306.114 82.4174 307.702C80.3336 308.15 78.8503 309.989 78.8503 312.12Z" stroke="#1A2E35" stroke-width="1.33333" stroke-miterlimit="10" stroke-linecap="round" stroke-linejoin="round"/>
<path d="M148.218 317.78C149.994 317.78 151.431 316.342 151.431 314.567C151.431 312.793 149.994 311.354 148.218 311.354C146.444 311.354 145.006 312.793 145.006 314.567C145.006 316.342 146.444 317.78 148.218 317.78ZM148.218 308.635C151.495 308.635 154.15 311.291 154.15 314.567C154.15 317.843 151.495 320.5 148.218 320.5C144.942 320.5 142.286 317.843 142.286 314.567C142.286 311.291 144.942 308.635 148.218 308.635Z" fill="#868686"/>
<path d="M148.218 317.78C149.994 317.78 151.431 316.342 151.431 314.567C151.431 312.793 149.994 311.354 148.218 311.354C146.444 311.354 145.006 312.793 145.006 314.567C145.006 316.342 146.444 317.78 148.218 317.78ZM148.218 308.635C151.495 308.635 154.15 311.291 154.15 314.567C154.15 317.843 151.495 320.5 148.218 320.5C144.942 320.5 142.286 317.843 142.286 314.567C142.286 311.291 144.942 308.635 148.218 308.635Z" stroke="#1A2E35" stroke-width="1.33333" stroke-miterlimit="10" stroke-linecap="round" stroke-linejoin="round"/>
<path d="M113.535 317.78C115.309 317.78 116.747 316.342 116.747 314.567C116.747 312.793 115.309 311.354 113.535 311.354C111.76 311.354 110.321 312.793 110.321 314.567C110.321 316.342 111.76 317.78 113.535 317.78ZM113.535 308.635C116.811 308.635 119.467 311.291 119.467 314.567C119.467 317.843 116.811 320.5 113.535 320.5C110.258 320.5 107.602 317.843 107.602 314.567C107.602 311.291 110.258 308.635 113.535 308.635Z" fill="#868686"/>
<path d="M113.535 317.78C115.309 317.78 116.747 316.342 116.747 314.567C116.747 312.793 115.309 311.354 113.535 311.354C111.76 311.354 110.321 312.793 110.321 314.567C110.321 316.342 111.76 317.78 113.535 317.78ZM113.535 308.635C116.811 308.635 119.467 311.291 119.467 314.567C119.467 317.843 116.811 320.5 113.535 320.5C110.258 320.5 107.602 317.843 107.602 314.567C107.602 311.291 110.258 308.635 113.535 308.635Z" stroke="#1A2E35" stroke-width="1.33333" stroke-miterlimit="10" stroke-linecap="round" stroke-linejoin="round"/>
<path d="M79.5688 317.78C81.3441 317.78 82.7819 316.342 82.7819 314.567C82.7819 312.793 81.3441 311.354 79.5688 311.354C77.7945 311.354 76.3566 312.793 76.3566 314.567C76.3566 316.342 77.7945 317.78 79.5688 317.78ZM79.5688 308.635C82.8458 308.635 85.502 311.291 85.502 314.567C85.502 317.843 82.8458 320.5 79.5688 320.5C76.2928 320.5 73.6366 317.843 73.6366 314.567C73.6366 311.291 76.2928 308.635 79.5688 308.635Z" fill="#868686"/>
<path d="M79.5688 317.78C81.3441 317.78 82.7819 316.342 82.7819 314.567C82.7819 312.793 81.3441 311.354 79.5688 311.354C77.7945 311.354 76.3566 312.793 76.3566 314.567C76.3566 316.342 77.7945 317.78 79.5688 317.78ZM79.5688 308.635C82.8458 308.635 85.502 311.291 85.502 314.567C85.502 317.843 82.8458 320.5 79.5688 320.5C76.2928 320.5 73.6366 317.843 73.6366 314.567C73.6366 311.291 76.2928 308.635 79.5688 308.635Z" stroke="#1A2E35" stroke-width="1.33333" stroke-miterlimit="10" stroke-linecap="round" stroke-linejoin="round"/>
<path d="M95.9514 227.28C119.297 228.003 142.083 226.995 165.273 224.215C169.995 223.581 173.812 226.812 173.812 231.55V232.683C173.812 237.422 169.995 241.872 165.273 242.508C142.083 245.287 119.297 246.294 95.9514 245.572V227.28Z" fill="#9A9A9A"/>
<path d="M95.9514 227.28C119.297 228.003 142.083 226.995 165.273 224.215C169.995 223.581 173.812 226.812 173.812 231.55V232.683C173.812 237.422 169.995 241.872 165.273 242.508C142.083 245.287 119.297 246.294 95.9514 245.572V227.28Z" stroke="#1A2E35" stroke-width="1.33333" stroke-miterlimit="10" stroke-linecap="round" stroke-linejoin="round"/>
<path d="M59.5918 242.205C73.9605 244.001 88.2046 245.197 102.673 245.818C106.199 245.917 109.061 243.093 109.061 239.575V234.021C109.061 230.504 106.199 227.625 102.673 227.527C88.2046 226.905 73.9605 225.71 59.5918 223.913C56.0885 223.422 53.2544 225.823 53.2544 229.34V234.893C53.2544 238.411 56.0885 241.714 59.5918 242.205Z" fill="#868686"/>
<path d="M59.5918 242.205C73.9605 244.001 88.2046 245.197 102.673 245.818C106.199 245.917 109.061 243.093 109.061 239.575V234.021C109.061 230.504 106.199 227.625 102.673 227.527C88.2046 226.905 73.9605 225.71 59.5918 223.913C56.0885 223.422 53.2544 225.823 53.2544 229.34V234.893C53.2544 238.411 56.0885 241.714 59.5918 242.205Z" stroke="#1A2E35" stroke-width="1.33333" stroke-miterlimit="10" stroke-linecap="round" stroke-linejoin="round"/>
<path d="M155.8 317.418C155.843 314.187 156.505 307.721 160.306 299.382L165.27 281.494L180.741 288.102L176.39 301.799C176.39 301.799 189.69 308.146 194.6 309.858C197.871 310.997 207.654 313.242 207.17 317.432C207.17 318.678 206.161 319.688 204.914 319.688H158.057C156.804 319.688 155.784 318.671 155.8 317.418Z" fill="white"/>
<path d="M155.8 317.418C155.843 314.187 156.505 307.721 160.306 299.382L165.27 281.494L180.741 288.102L176.39 301.799C176.39 301.799 189.69 308.146 194.6 309.858C197.871 310.997 207.654 313.242 207.17 317.432C207.17 318.678 206.161 319.688 204.914 319.688H158.057C156.804 319.688 155.784 318.671 155.8 317.418Z" stroke="#1A2E35" stroke-width="1.33333" stroke-miterlimit="10" stroke-linecap="round" stroke-linejoin="round"/>
<path d="M164.314 306.957C166.732 308.729 179.624 310.985 176.391 308.407C173.158 305.828 176.391 301.799 176.391 301.799C176.391 301.799 189.691 308.145 194.602 309.858C197.873 310.998 207.656 313.242 207.172 317.432C207.172 318.678 206.162 319.688 204.915 319.688H158.058C156.805 319.688 155.786 318.67 155.801 317.417C155.837 314.69 156.323 309.645 158.762 303.121C161.426 303.154 161.897 305.184 164.314 306.957Z" fill="#38BFF2"/>
<path d="M164.314 306.957C166.732 308.729 179.624 310.985 176.391 308.407C173.158 305.828 176.391 301.799 176.391 301.799C176.391 301.799 189.691 308.145 194.602 309.858C197.873 310.998 207.656 313.242 207.172 317.432C207.172 318.678 206.162 319.688 204.915 319.688H158.058C156.805 319.688 155.786 318.67 155.801 317.417C155.837 314.69 156.323 309.645 158.762 303.121C161.426 303.154 161.897 305.184 164.314 306.957Z" stroke="#1A2E35" stroke-width="1.33333" stroke-miterlimit="10" stroke-linecap="round" stroke-linejoin="round"/>
<path d="M144.607 319.688H110.283C109.573 319.688 108.968 319.185 108.833 318.489C108.307 315.76 108.427 309.659 111.523 301.557L111.828 285.11L129.412 288.102L127.181 302.122C127.181 302.122 134.261 309.913 137.623 311.308C139.987 312.289 145.357 312.392 146.078 318.043C146.19 318.916 145.488 319.688 144.607 319.688Z" fill="white"/>
<path d="M144.607 319.688H110.283C109.573 319.688 108.968 319.185 108.833 318.489C108.307 315.76 108.427 309.659 111.523 301.557L111.828 285.11L129.412 288.102L127.181 302.122C127.181 302.122 134.261 309.913 137.623 311.308C139.987 312.289 145.357 312.392 146.078 318.043C146.19 318.916 145.488 319.688 144.607 319.688Z" stroke="#1A2E35" stroke-width="1.33333" stroke-miterlimit="10" stroke-linecap="round" stroke-linejoin="round"/>
<path d="M117.317 307.019C120.946 309.556 123.621 309.858 121.929 306.052C120.237 302.247 127.18 302.123 127.18 302.123C127.18 302.123 134.26 309.912 137.623 311.308C139.986 312.288 145.357 312.392 146.078 318.042C146.189 318.916 145.488 319.688 144.607 319.688H110.283C109.572 319.688 108.967 319.185 108.834 318.488C108.308 315.759 108.427 309.659 111.524 301.558C114.172 302.203 113.688 304.482 117.317 307.019Z" fill="#38BFF2"/>
<path d="M117.317 307.019C120.946 309.556 123.621 309.858 121.929 306.052C120.237 302.247 127.18 302.123 127.18 302.123C127.18 302.123 134.26 309.912 137.623 311.308C139.986 312.288 145.357 312.392 146.078 318.042C146.189 318.916 145.488 319.688 144.607 319.688H110.283C109.572 319.688 108.967 319.185 108.834 318.488C108.308 315.759 108.427 309.659 111.524 301.558C114.172 302.203 113.688 304.482 117.317 307.019Z" stroke="#1A2E35" stroke-width="1.33333" stroke-miterlimit="10" stroke-linecap="round" stroke-linejoin="round"/>
<path d="M148.027 194.147C148.027 194.147 151.482 197.692 165.629 199.948C179.774 202.204 209.105 209.296 208.783 220.899C208.461 232.502 181.386 294.387 181.386 294.387C181.386 294.387 167.849 291.808 161.564 287.94C161.564 287.94 172.46 243.783 180.63 232.179C180.63 232.179 143.953 227.668 123.669 219.287C103.386 210.907 115.311 191.835 115.311 191.835L148.027 194.147Z" fill="#1A2E35"/>
<path d="M148.027 194.147C148.027 194.147 151.482 197.692 165.629 199.948C179.774 202.204 209.105 209.296 208.783 220.899C208.461 232.502 181.386 294.387 181.386 294.387C181.386 294.387 167.849 291.808 161.564 287.94C161.564 287.94 172.46 243.783 180.63 232.179C180.63 232.179 143.953 227.668 123.669 219.287C103.386 210.907 115.311 191.835 115.311 191.835L148.027 194.147Z" stroke="#1A2E35" stroke-width="1.33333" stroke-miterlimit="10" stroke-linecap="round" stroke-linejoin="round"/>
<path d="M124.982 192.518C124.982 192.518 119.779 201.238 123.669 206.072C127.559 210.907 149.623 219.932 147.133 230.891C144.642 241.849 136.403 257.32 131.03 294.064C131.03 294.064 118.534 292.13 110.154 288.585C110.154 288.585 108.765 251.197 118.484 235.081C118.484 235.081 90.6535 229.924 87.8339 220.576C85.0134 211.23 90.29 196.936 90.3915 191.835L124.982 192.518Z" fill="#1A2E35"/>
<path d="M124.982 192.518C124.982 192.518 119.779 201.238 123.669 206.072C127.559 210.907 149.623 219.932 147.133 230.891C144.642 241.849 136.403 257.32 131.03 294.064C131.03 294.064 118.534 292.13 110.154 288.585C110.154 288.585 108.765 251.197 118.484 235.081C118.484 235.081 90.6535 229.924 87.8339 220.576C85.0134 211.23 90.29 196.936 90.3915 191.835L124.982 192.518Z" stroke="#1A2E35" stroke-width="1.33333" stroke-miterlimit="10" stroke-linecap="round" stroke-linejoin="round"/>
<path d="M141.748 206.364C142.364 206.323 143.006 206.33 143.674 206.394" stroke="#808080" stroke-linecap="round" stroke-linejoin="round"/>
<path d="M140.525 200.593C140.525 200.593 134.81 202.275 132.567 209.723C132.39 210.314 133.125 210.765 133.559 210.327C134.749 209.124 136.605 207.645 139.063 206.87" stroke="#808080" stroke-linecap="round" stroke-linejoin="round"/>
<path d="M183.319 231.777C183.319 228.633 196.857 226.942 193.231 224.041C189.605 221.141 181.385 230.568 181.385 230.568" stroke="#808080" stroke-linecap="round" stroke-linejoin="round"/>
<path d="M116.802 244.347C116.802 240.748 129.739 238.787 129.092 234.919C128.446 231.052 120.227 238.666 120.227 238.666" stroke="#808080" stroke-linecap="round" stroke-linejoin="round"/>
<path d="M182.81 294.607L181.386 297.894C181.223 298.267 180.824 298.475 180.427 298.385C177.3 297.68 164.265 294.601 159.687 291.318C159.415 291.123 159.302 290.771 159.381 290.445L160.268 286.781C160.4 286.239 161.009 285.971 161.499 286.24C163.555 287.363 169.291 290.041 182.24 293.451C182.742 293.583 183.016 294.131 182.81 294.607Z" fill="#9A9A9A"/>
<path d="M182.81 294.607L181.386 297.894C181.223 298.267 180.824 298.475 180.427 298.385C177.3 297.68 164.265 294.601 159.687 291.318C159.415 291.123 159.302 290.771 159.381 290.445L160.268 286.781C160.4 286.239 161.009 285.971 161.499 286.24C163.555 287.363 169.291 290.041 182.24 293.451C182.742 293.583 183.016 294.131 182.81 294.607Z" stroke="#1A2E35" stroke-width="1.33333" stroke-miterlimit="10" stroke-linecap="round" stroke-linejoin="round"/>
<path d="M132.604 291.9C132.676 291.406 132.198 290.997 131.731 291.17C130.804 291.514 129.233 291.783 126.874 291.244C123.29 290.425 113.026 287.176 109.973 286.202C109.541 286.065 109.107 286.389 109.107 286.842V291.117C109.107 291.382 109.256 291.619 109.498 291.726C111.899 292.796 124.746 298.299 131.47 296.799C131.738 296.739 131.935 296.51 131.975 296.237L132.604 291.9Z" fill="#9A9A9A"/>
<path d="M132.604 291.9C132.676 291.406 132.198 290.997 131.731 291.17C130.804 291.514 129.233 291.783 126.874 291.244C123.29 290.425 113.026 287.176 109.973 286.202C109.541 286.065 109.107 286.389 109.107 286.842V291.117C109.107 291.382 109.256 291.619 109.498 291.726C111.899 292.796 124.746 298.299 131.47 296.799C131.738 296.739 131.935 296.51 131.975 296.237L132.604 291.9Z" stroke="#1A2E35" stroke-width="1.33333" stroke-miterlimit="10" stroke-linecap="round" stroke-linejoin="round"/>
<path d="M122.262 202.4C122.384 203.723 122.8 204.995 123.666 206.072C126.504 209.598 139.011 215.354 144.605 222.464" stroke="#808080" stroke-width="1.33333" stroke-linecap="round" stroke-linejoin="round"/>
<path d="M122.869 197.482C122.665 198.178 122.492 198.912 122.377 199.659" stroke="#808080" stroke-width="1.33333" stroke-linecap="round" stroke-linejoin="round"/>
<path d="M196.92 312.033C196.92 312.033 195.953 313.564 195.228 316.626H160.307C160.307 316.626 160.214 314.285 158.363 312.638" stroke="#1A2E35" stroke-width="1.33333" stroke-miterlimit="10" stroke-linecap="round" stroke-linejoin="round"/>
<path d="M136.244 312.033C136.244 312.033 131.409 312.396 129.596 316.626H111.345C111.345 316.626 110.378 314.451 110.378 312.638" stroke="#1A2E35" stroke-width="1.33333" stroke-miterlimit="10" stroke-linecap="round" stroke-linejoin="round"/>
<path d="M164.867 139.459C164.418 141.167 163.958 142.857 163.497 144.51C158.663 161.915 152.378 195.033 152.378 195.033C121.436 201.56 88.802 195.033 88.802 195.033C88.6241 187.813 89.503 178.291 90.4825 168.288C85.408 166.884 81.7491 162.2 81.5499 154.422C81.3082 144.994 83.0168 128.019 83.9673 120.095C84.8037 113.122 84.209 108.975 95.0098 103.691C100.423 100.566 109.41 99.0884 120.469 97.6138C142.226 94.7129 157.925 99.1087 163.497 101.482C167.914 100.318 169.143 105.505 169.143 105.505C171.591 103.651 174.432 111.486 174.432 111.486C181.588 120.617 187.217 135.994 189.088 141.478C189.498 142.679 190.265 143.717 191.274 144.486C196.35 148.357 193.529 153.142 193.529 153.142L183.134 156.328C183.134 156.328 178.098 157.639 174.251 151.016C171.032 145.475 165.773 136.084 164.867 139.459Z" fill="#38BFF2"/>
<g opacity="0.300003">
<g opacity="0.300003">
<path opacity="0.300003" d="M181.214 151.957C181.214 151.957 181.456 147.123 185.324 146.277C189.191 145.431 184.236 143.988 181.214 144.71C178.192 145.431 178.889 142.772 176.305 138.421C173.72 134.07 172.452 130.63 170.245 133.139C168.039 135.648 165.792 135.993 164.861 139.459C163.93 142.925 168.523 151.015 168.523 151.015L175.738 156.611L179.401 158.666H184.872L186.74 153.937L181.214 151.957Z" fill="black"/>
</g>
</g>
<path d="M164.867 139.459C164.418 141.167 163.958 142.857 163.497 144.51C158.663 161.915 152.378 195.033 152.378 195.033C121.436 201.56 88.802 195.033 88.802 195.033C88.6241 187.813 89.503 178.29 90.4825 168.287C85.408 166.883 81.7491 162.2 81.5499 154.422C81.3082 144.994 83.0168 128.019 83.9673 120.095C84.8037 113.121 84.209 108.975 95.0098 103.691C100.423 100.566 109.41 99.0882 120.469 97.6137C142.226 94.7128 157.925 99.1085 163.497 101.481C167.914 100.318 169.143 105.505 169.143 105.505C171.591 103.651 174.432 111.485 174.432 111.485C181.588 120.617 187.217 135.994 189.088 141.478C189.498 142.679 190.265 143.717 191.274 144.486C196.35 148.357 193.529 153.142 193.529 153.142L183.134 156.328C183.134 156.328 178.098 157.639 174.251 151.016C171.032 145.475 165.773 136.083 164.867 139.459Z" stroke="#1A2E35" stroke-width="1.33333" stroke-miterlimit="10" stroke-linecap="round" stroke-linejoin="round"/>
<g opacity="0.300003">
<g opacity="0.300003">
<path opacity="0.300003" d="M88.7998 195.033C88.6712 189.81 89.0986 183.372 89.7136 176.428C88.6596 191.148 119.321 195.755 120.288 187.776C121.255 179.794 90.4804 168.288 107.226 172.31C121.84 175.82 150.153 172.467 157.121 171.557C154.446 184.134 152.376 195.033 152.376 195.033C121.434 201.56 88.7998 195.033 88.7998 195.033Z" fill="black"/>
</g>
</g>
<g opacity="0.300003">
<g opacity="0.300003">
<path opacity="0.300003" d="M102.863 121.062C102.863 121.062 107.238 133.874 107.23 140.643C107.22 147.405 119.504 151.948 119.525 151.957C112.948 150.616 106.544 148.847 103.484 147.964C102.398 147.65 101.688 146.62 101.787 145.494C102.39 138.554 103.044 129.21 102.862 121.062H102.863Z" fill="black"/>
</g>
</g>
<path d="M168.916 117.836C168.916 117.836 169.063 127.052 165.692 135.523C165.378 136.308 166.271 137.024 166.958 136.532C168.617 135.345 170.963 132.925 173.084 128.049" stroke="#1A2E35" stroke-miterlimit="10" stroke-linecap="round" stroke-linejoin="round"/>
<path d="M86.8683 157.322C89.4191 148.863 93.8342 146.744 97.2562 146.531C97.8064 146.497 97.9891 145.778 97.5057 145.516C95.5196 144.439 91.644 143.59 86.8683 148.861" stroke="#1A2E35" stroke-miterlimit="10" stroke-linecap="round" stroke-linejoin="round"/>
<path d="M135.917 133.104C135.917 133.907 136.567 134.557 137.369 134.557C138.172 134.557 138.822 133.907 138.822 133.104C138.822 132.302 138.172 131.652 137.369 131.652C136.567 131.652 135.917 132.302 135.917 133.104Z" fill="#9A9A9A"/>
<path d="M135.917 133.104C135.917 133.907 136.567 134.557 137.369 134.557C138.172 134.557 138.822 133.907 138.822 133.104C138.822 132.302 138.172 131.652 137.369 131.652C136.567 131.652 135.917 132.302 135.917 133.104Z" stroke="#1A2E35" stroke-miterlimit="10" stroke-linecap="round" stroke-linejoin="round"/>
<path d="M133.95 149.563C133.95 150.366 134.601 151.016 135.403 151.016C136.206 151.016 136.855 150.366 136.855 149.563C136.855 148.761 136.206 148.11 135.403 148.11C134.601 148.11 133.95 148.761 133.95 149.563Z" fill="#9A9A9A"/>
<path d="M133.95 149.563C133.95 150.366 134.601 151.016 135.403 151.016C136.206 151.016 136.855 150.366 136.855 149.563C136.855 148.761 136.206 148.11 135.403 148.11C134.601 148.11 133.95 148.761 133.95 149.563Z" stroke="#1A2E35" stroke-miterlimit="10" stroke-linecap="round" stroke-linejoin="round"/>
<path d="M129.094 189.229C129.094 190.031 129.745 190.682 130.548 190.682C131.349 190.682 132 190.031 132 189.229C132 188.426 131.349 187.776 130.548 187.776C129.745 187.776 129.094 188.426 129.094 189.229Z" fill="#9A9A9A"/>
<path d="M129.094 189.229C129.094 190.031 129.745 190.682 130.548 190.682C131.349 190.682 132 190.031 132 189.229C132 188.426 131.349 187.776 130.548 187.776C129.745 187.776 129.094 188.426 129.094 189.229Z" stroke="#1A2E35" stroke-width="1.33333" stroke-miterlimit="10" stroke-linecap="round" stroke-linejoin="round"/>
<path d="M156.857 160.344C156.857 160.344 161.607 164.875 159.348 164.945C157.09 165.016 154.233 161.915 151.613 161.552C148.993 161.19 153.223 159.588 153.223 159.588L156.857 160.344Z" fill="white"/>
<path d="M156.857 160.344C156.857 160.344 161.607 164.875 159.348 164.945C157.09 165.016 154.233 161.915 151.613 161.552C148.993 161.19 153.223 159.588 153.223 159.588L156.857 160.344Z" stroke="#1A2E35" stroke-width="1.33333" stroke-miterlimit="10" stroke-linecap="round" stroke-linejoin="round"/>
<path d="M129.135 155.255C129.56 154.867 130.137 154.684 130.711 154.731C133.037 154.917 139.702 155.423 142.224 155.267C146.686 154.993 159.843 152.205 159.843 152.205C160.148 152.153 160.461 152.17 160.758 152.257L168.905 154.651C169.202 154.739 169.475 154.892 169.703 155.102L174.634 159.634C174.797 159.784 174.934 159.959 175.04 160.153L176.061 162.026C176.495 162.818 176.348 163.802 175.704 164.434L167.544 164.689C167.04 164.705 166.549 164.532 166.166 164.204L163.749 162.132C163.589 161.993 163.453 161.83 163.34 161.65C162.745 160.695 160.468 157.496 156.857 157.806C156.857 157.806 164.585 161.915 163.134 163.607C161.684 165.299 155.762 160.465 153.828 160.948C151.935 161.421 151.765 166.175 141.24 164.456C140.773 164.38 140.288 164.398 139.833 164.525L130.261 167.201C129.062 167.537 127.831 166.818 127.523 165.612C126.806 162.812 126.153 157.973 129.135 155.255Z" fill="white"/>
<path d="M129.135 155.255C129.56 154.867 130.137 154.684 130.711 154.731C133.037 154.917 139.702 155.423 142.224 155.267C146.686 154.993 159.843 152.205 159.843 152.205C160.148 152.153 160.461 152.17 160.758 152.257L168.905 154.651C169.202 154.739 169.475 154.892 169.703 155.102L174.634 159.634C174.797 159.784 174.934 159.959 175.04 160.153L176.061 162.026C176.495 162.818 176.348 163.802 175.704 164.434L167.544 164.689C167.04 164.705 166.549 164.532 166.166 164.204L163.749 162.132C163.589 161.993 163.453 161.83 163.34 161.65C162.745 160.695 160.468 157.496 156.857 157.806C156.857 157.806 164.585 161.915 163.134 163.607C161.684 165.299 155.762 160.465 153.828 160.948C151.935 161.421 151.765 166.175 141.24 164.456C140.773 164.38 140.288 164.398 139.833 164.525L130.261 167.201C129.062 167.537 127.831 166.818 127.523 165.612C126.806 162.812 126.153 157.973 129.135 155.255Z" stroke="#1A2E35" stroke-width="1.33333" stroke-miterlimit="10" stroke-linecap="round" stroke-linejoin="round"/>
<path d="M158.704 153.938L160.758 154.284C161.757 154.453 162.692 154.896 163.455 155.564L165.588 157.431C165.965 157.76 166.293 158.138 166.567 158.556L167.967 160.698C168.121 160.934 168.295 161.155 168.484 161.364C169.316 162.28 171.605 165.002 169.132 164.64" fill="white"/>
<path d="M158.704 153.938L160.758 154.284C161.757 154.453 162.692 154.896 163.455 155.564L165.588 157.431C165.965 157.76 166.293 158.138 166.567 158.556L167.967 160.698C168.121 160.934 168.295 161.155 168.484 161.364C169.316 162.28 171.605 165.002 169.132 164.64" stroke="#1A2E35" stroke-width="1.33333" stroke-miterlimit="10" stroke-linecap="round" stroke-linejoin="round"/>
<path d="M164.476 154.663L166.599 155.236C167.259 155.415 167.864 155.758 168.358 156.232L170.013 157.821C170.17 157.972 170.315 158.134 170.445 158.309L173.16 161.915C173.16 161.915 174.615 164.469 173.16 164.514" fill="white"/>
<path d="M164.476 154.663L166.599 155.236C167.259 155.415 167.864 155.758 168.358 156.232L170.013 157.821C170.17 157.972 170.315 158.134 170.445 158.309L173.16 161.915C173.16 161.915 174.615 164.469 173.16 164.514" stroke="#1A2E35" stroke-width="1.33333" stroke-miterlimit="10" stroke-linecap="round" stroke-linejoin="round"/>
<path d="M102.796 119.011C103.153 127.599 102.438 137.965 101.782 145.493C101.685 146.619 102.393 147.65 103.479 147.963C107.701 149.182 118.287 152.091 126.916 153.229" stroke="#1A2E35" stroke-width="1.33333" stroke-miterlimit="10" stroke-linecap="round" stroke-linejoin="round"/>
<path d="M102.317 113.015C102.443 113.998 102.547 115.032 102.629 116.107" stroke="#1A2E35" stroke-miterlimit="10" stroke-linecap="round" stroke-linejoin="round"/>
<path d="M99.0719 103.959C100.181 104.913 100.997 106.68 101.584 109.006" stroke="#1A2E35" stroke-miterlimit="10" stroke-linecap="round" stroke-linejoin="round"/>
<path d="M147.486 98.2176C147.486 98.2176 146.882 96.2837 143.619 95.1959C140.355 94.1081 129.063 92.3657 123.253 95.1959C117.441 98.0262 128.571 113.387 128.571 113.387L133.767 120.517L138.36 123.962L140.416 117.837L143.075 115.078C143.075 115.078 148.816 110.365 148.332 105.711C147.849 101.058 147.486 98.2176 147.486 98.2176Z" fill="white"/>
<path d="M123.751 97.5792C131.427 121.676 138.195 122.754 138.195 122.754C140.451 113.891 142.385 115.824 145.447 110.286C147.904 105.843 147.073 100.209 146.649 98.1565C146.546 97.6575 146.229 97.2243 145.775 96.9932C138.158 93.1158 128.839 94.542 124.995 95.391C124.018 95.6066 123.447 96.6258 123.751 97.5792ZM118.958 97.8171C119.865 94.6368 124.013 93.7453 124.013 93.7453C143.835 90.361 148.026 97.5666 148.026 97.5666C152.054 108.8 148.026 117.837 148.026 117.837C148.026 117.837 142.385 115.501 141.418 117.837C140.451 120.171 138.679 125.171 138.679 125.171C138.679 125.171 134.811 123.237 131.749 119.209C128.687 115.179 121.485 119.209 121.485 119.209C116.863 111.15 118.958 97.8171 118.958 97.8171Z" fill="#38BFF2"/>
<g opacity="0.399994">
<g opacity="0.399994">
<path opacity="0.399994" d="M123.749 97.5793C131.425 121.676 138.193 122.754 138.193 122.754C140.449 113.891 142.383 115.825 145.445 110.286C147.902 105.843 147.071 100.209 146.647 98.1566C146.544 97.6576 146.228 97.2244 145.773 96.9933C138.156 93.1159 128.837 94.5422 124.993 95.3911C124.016 95.6068 123.445 96.6259 123.749 97.5793ZM118.956 97.8172C119.863 94.6369 124.011 93.7454 124.011 93.7454C143.833 90.3611 148.024 97.5667 148.024 97.5667C152.052 108.8 148.024 117.837 148.024 117.837C148.024 117.837 142.383 115.502 141.416 117.837C140.449 120.171 138.677 125.171 138.677 125.171C138.677 125.171 134.809 123.237 131.747 119.209C128.685 115.18 121.483 119.209 121.483 119.209C116.861 111.15 118.956 97.8172 118.956 97.8172Z" fill="white"/>
</g>
</g>
<path d="M123.749 97.5791C131.425 121.676 138.193 122.753 138.193 122.753C140.449 113.89 142.383 115.824 145.445 110.286C147.902 105.843 147.071 100.209 146.647 98.1563C146.544 97.6574 146.228 97.2242 145.773 96.9931C138.156 93.1157 128.837 94.5419 124.993 95.3909C124.016 95.6065 123.445 96.6257 123.749 97.5791ZM118.956 97.8169C119.863 94.6367 124.011 93.7451 124.011 93.7451C143.833 90.3608 148.024 97.5665 148.024 97.5665C152.052 108.799 148.024 117.837 148.024 117.837C148.024 117.837 142.383 115.501 141.416 117.837C140.449 120.171 138.677 125.171 138.677 125.171C138.677 125.171 134.809 123.237 131.747 119.209C128.685 115.179 121.483 119.209 121.483 119.209C116.861 111.15 118.956 97.8169 118.956 97.8169V97.8169Z" stroke="#1A2E35" stroke-width="1.33333" stroke-miterlimit="10" stroke-linecap="round" stroke-linejoin="round"/>
<path d="M151.318 60.9941C151.318 60.9941 168.4 64.4151 158.993 75.5263C148.559 87.849 151.318 60.9941 151.318 60.9941Z" fill="#1A2E35"/>
<path d="M151.318 60.9941C151.318 60.9941 168.4 64.4151 158.993 75.5263C148.559 87.849 151.318 60.9941 151.318 60.9941Z" stroke="#1A2E35" stroke-width="1.33333" stroke-miterlimit="10" stroke-linecap="round" stroke-linejoin="round"/>
<path d="M158.056 88.1047C158.056 88.1047 162.117 71.6667 154.381 63.7696C146.646 55.8736 138.265 54.2617 131.98 58.1295C125.695 61.9972 123.117 71.6667 124.084 76.6628C125.051 81.6581 124.579 99.5465 133.196 106.96C141.811 114.374 147.114 112.546 152.811 102.447C156.555 95.8122 158.346 93.9063 158.056 88.1047Z" fill="white"/>
<path d="M158.056 88.1047C158.056 88.1047 162.117 71.6667 154.381 63.7696C146.646 55.8736 138.265 54.2617 131.98 58.1295C125.695 61.9972 123.117 71.6667 124.084 76.6628C125.051 81.6581 124.579 99.5465 133.196 106.96C141.811 114.374 147.114 112.546 152.811 102.447C156.555 95.8122 158.346 93.9063 158.056 88.1047Z" stroke="#1A2E35" stroke-width="1.33333" stroke-miterlimit="10" stroke-linecap="round" stroke-linejoin="round"/>
<path d="M128.115 84.8819C128.115 84.8819 134.609 78.4353 136.598 70.8612C138.587 63.2872 139.714 61.9973 147.128 65.7045C154.541 69.4108 166.108 64.4214 163.082 55.0682C159.902 45.2373 150.19 57.969 140.843 54.7452C131.495 51.5224 124.866 57.324 124.851 65.865C124.851 65.865 119.203 71.3447 124.866 85.5269L128.115 84.8819Z" fill="#1A2E35"/>
<path d="M128.115 84.8819C128.115 84.8819 134.609 78.4353 136.598 70.8612C138.587 63.2872 139.714 61.9973 147.128 65.7045C154.541 69.4108 166.108 64.4214 163.082 55.0682C159.902 45.2373 150.19 57.969 140.843 54.7452C131.495 51.5224 124.866 57.324 124.851 65.865C124.851 65.865 119.203 71.3447 124.866 85.5269L128.115 84.8819Z" stroke="#1A2E35" stroke-width="1.33333" stroke-miterlimit="10" stroke-linecap="round" stroke-linejoin="round"/>
<path d="M130.152 83.8007C130.152 83.8007 128.51 74.7897 123.939 75.6252C119.369 76.4616 122.636 89.7571 128.013 88.3066" fill="white"/>
<path d="M130.152 83.8007C130.152 83.8007 128.51 74.7897 123.939 75.6252C119.369 76.4616 122.636 89.7571 128.013 88.3066" stroke="#1A2E35" stroke-width="1.33333" stroke-miterlimit="10" stroke-linecap="round" stroke-linejoin="round"/>
<path d="M151.884 86.8558C151.884 86.8558 153.675 95.218 153.093 96.6558C152.51 98.0936 146.973 96.9933 146.973 96.9933" fill="white"/>
<path d="M151.884 86.8558C151.884 86.8558 153.675 95.218 153.093 96.6558C152.51 98.0936 146.973 96.9933 146.973 96.9933" stroke="#1A2E35" stroke-width="1.33333" stroke-miterlimit="10" stroke-linecap="round" stroke-linejoin="round"/>
<path d="M146.201 100.635C146.201 100.635 141.865 102.347 138.05 96.6558L146.201 100.635Z" fill="white"/>
<path d="M146.201 100.635C146.201 100.635 141.865 102.347 138.05 96.6558" stroke="#1A2E35" stroke-width="1.33333" stroke-miterlimit="10" stroke-linecap="round" stroke-linejoin="round"/>
<path d="M154.848 87.5532C154.687 88.3326 154.89 89.0336 155.303 89.1197C155.714 89.2047 156.181 88.643 156.343 87.8636C156.504 87.0842 156.301 86.3832 155.889 86.2981C155.476 86.2121 155.011 86.7739 154.848 87.5532Z" fill="#1A2E35"/>
<path d="M144.245 86.701C144.083 87.4803 144.286 88.1814 144.699 88.2665C145.111 88.3525 145.578 87.7898 145.739 87.0114C145.901 86.232 145.698 85.531 145.285 85.4449C144.872 85.3598 144.406 85.9216 144.245 86.701Z" fill="#1A2E35"/>
<path d="M152.619 87.1911C152.4 89.3812 154.602 91.3953 157.537 91.6883C160.471 91.9813 163.028 90.4439 163.247 88.2537C163.466 86.0626 161.16 85.0957 158.225 84.8027C155.29 84.5097 152.838 85 152.619 87.1911Z" stroke="#1A2E35" stroke-width="1.33333" stroke-miterlimit="10" stroke-linecap="round" stroke-linejoin="round"/>
<path d="M138.938 85.8229C138.718 88.014 140.921 90.0272 143.856 90.3201C146.79 90.6141 149.347 89.0757 149.566 86.8856C149.785 84.6945 147.479 83.7285 144.544 83.4355C141.61 83.1425 139.157 83.6328 138.938 85.8229Z" stroke="#1A2E35" stroke-width="1.33333" stroke-miterlimit="10" stroke-linecap="round" stroke-linejoin="round"/>
<path d="M152.619 87.1912L149.564 86.8856L152.619 87.1912Z" fill="white"/>
<path d="M152.619 87.1912L149.564 86.8856" stroke="#1A2E35" stroke-width="1.33333" stroke-miterlimit="10" stroke-linecap="round" stroke-linejoin="round"/>
<path d="M139.312 84.726L128.072 78.0976L139.312 84.726Z" fill="white"/>
<path d="M139.312 84.726L128.072 78.0976" stroke="#1A2E35" stroke-width="1.33333" stroke-miterlimit="10" stroke-linecap="round" stroke-linejoin="round"/>
<path d="M126.145 95.0362L125.615 96.3242L126.145 95.0362Z" fill="white"/>
<path d="M126.145 95.0362L125.615 96.3242" stroke="#1A2E35" stroke-width="1.33333" stroke-miterlimit="10" stroke-linecap="round" stroke-linejoin="round"/>
<path d="M158.959 83.6567C158.959 83.6567 157.247 81.4782 155.146 82.5273L158.959 83.6567Z" fill="white"/>
<path d="M158.959 83.6567C158.959 83.6567 157.247 81.4782 155.146 82.5273" stroke="#1A2E35" stroke-width="1.33333" stroke-miterlimit="10" stroke-linecap="round" stroke-linejoin="round"/>
<path d="M141.438 82.6831C141.438 82.6831 144.446 79.8161 147.34 81.8274L141.438 82.6831Z" fill="white"/>
<path d="M141.438 82.6831C141.438 82.6831 144.446 79.8161 147.34 81.8274" stroke="#1A2E35" stroke-width="1.33333" stroke-miterlimit="10" stroke-linecap="round" stroke-linejoin="round"/>
<path d="M155.16 56.1529C150.587 57.6072 142.889 59.3825 136.599 57.4844C126.983 54.5836 130.247 65.4095 128.071 68.3973" stroke="#808080" stroke-width="1.33333" stroke-linecap="round" stroke-linejoin="round"/>
<path d="M159.119 54.7049C159.119 54.7049 158.351 55.0434 157.051 55.5114" stroke="#808080" stroke-width="1.33333" stroke-linecap="round" stroke-linejoin="round"/>
<path d="M147.568 61.5426C147.056 61.386 146.519 61.2032 145.96 60.9943" stroke="#808080" stroke-width="1.33333" stroke-linecap="round" stroke-linejoin="round"/>
<path d="M158.055 60.2649C158.055 60.2649 156.012 63.4326 149.408 62.0228" stroke="#808080" stroke-width="1.33333" stroke-linecap="round" stroke-linejoin="round"/>
<path d="M133.5 66.4657C133.094 69.2167 132.052 73.2063 129.401 76.8236" stroke="#808080" stroke-width="1.33333" stroke-linecap="round" stroke-linejoin="round"/>
<path d="M133.751 63.0449C133.751 63.0449 133.775 63.6946 133.691 64.7747" stroke="#808080" stroke-width="1.33333" stroke-linecap="round" stroke-linejoin="round"/>
<g opacity="0.300003">
<g opacity="0.300003">
<path opacity="0.300003" d="M125.149 166.772C125.927 167.468 125.475 168.752 124.43 168.758C117.901 168.788 100.285 168.832 93.4532 168.442C84.9925 167.959 91.4497 158.752 98.2531 162.267C104.523 165.507 117.712 160.114 125.149 166.772Z" fill="black"/>
</g>
</g>
<path d="M198.783 157.708C198.783 157.708 194.831 147.178 184.911 148.849C174.891 150.538 182.573 158.825 187.342 159.567C187.342 159.567 188.067 156.676 198.783 157.708Z" fill="white"/>
<path d="M198.783 157.708C198.783 157.708 194.831 147.178 184.911 148.849C174.891 150.538 182.573 158.825 187.342 159.567C187.342 159.567 188.067 156.676 198.783 157.708Z" stroke="#1A2E35" stroke-width="1.33333" stroke-miterlimit="10" stroke-linecap="round" stroke-linejoin="round"/>
<path d="M207.184 163.682C208.494 164.991 211.633 165.103 209.521 162.267C207.184 159.13 204.55 158.078 202.753 157.275C198.047 155.175 196.212 155.595 191.955 154.662C187.698 153.73 186.902 155.461 185.428 156.268C181.92 158.192 181.077 158.525 180.19 160.459C179.305 162.393 178.338 164.91 181.077 164.91C183.575 164.91 183.736 160.781 186.153 160.943C188.571 161.103 189.779 164.91 191.472 164.91H192.117C193.567 164.91 193.645 163.703 192.758 161.807C191.87 159.91 190.908 158.202 190.908 158.202C190.908 158.202 193.01 159.16 194.171 161.627C195.332 164.095 195.545 165.134 197.678 165.134C199.811 165.134 199.664 163.55 197.542 160.05C197.542 160.05 199.454 161.1 200.499 163.076C201.544 165.052 202.089 164.91 203.459 164.91C205.25 164.91 205.13 161.949 201.946 160.015C201.946 160.015 202.652 159.15 207.184 163.682Z" fill="white"/>
<path d="M207.184 163.682C208.494 164.991 211.633 165.103 209.521 162.267C207.184 159.13 204.55 158.078 202.753 157.275C198.047 155.175 196.212 155.595 191.955 154.662C187.698 153.73 186.902 155.461 185.428 156.268C181.92 158.192 181.077 158.525 180.19 160.459C179.305 162.393 178.338 164.91 181.077 164.91C183.575 164.91 183.736 160.781 186.153 160.943C188.571 161.103 189.779 164.91 191.472 164.91H192.117C193.567 164.91 193.645 163.703 192.758 161.807C191.87 159.91 190.908 158.202 190.908 158.202C190.908 158.202 193.01 159.16 194.171 161.627C195.332 164.095 195.545 165.134 197.678 165.134C199.811 165.134 199.664 163.55 197.542 160.05C197.542 160.05 199.454 161.1 200.499 163.076C201.544 165.052 202.089 164.91 203.459 164.91C205.25 164.91 205.13 161.949 201.946 160.015C201.946 160.015 202.652 159.15 207.184 163.682Z" stroke="#1A2E35" stroke-width="1.33333" stroke-miterlimit="10" stroke-linecap="round" stroke-linejoin="round"/>
<path d="M194.751 156.611C194.751 156.611 196.002 156.551 196.787 158.666L194.751 156.611Z" fill="white"/>
<path d="M194.751 156.611C194.751 156.611 196.002 156.551 196.787 158.666" stroke="#1A2E35" stroke-miterlimit="10" stroke-linecap="round" stroke-linejoin="round"/>
<path d="M35.8672 65.5728C29.6991 70.4211 23.7533 75.6871 18.0677 81.3727" stroke="#1A2E35" stroke-miterlimit="10" stroke-linecap="round" stroke-linejoin="round"/>
<path d="M42.6152 60.4994C41.4327 61.3493 40.2578 62.2138 39.0907 63.0927" stroke="#1A2E35" stroke-miterlimit="10" stroke-linecap="round" stroke-linejoin="round"/>
<path d="M49.3535 55.8637C48.141 56.6614 46.9352 57.4737 45.7372 58.3004" stroke="#1A2E35" stroke-miterlimit="10" stroke-linecap="round" stroke-linejoin="round"/>
<path d="M98.8184 32.4632C83.005 37.3917 67.6876 44.3527 53.2773 53.3481" stroke="#1A2E35" stroke-miterlimit="10" stroke-linecap="round" stroke-linejoin="round"/>
<path d="M109.383 29.4909C107.425 29.9831 105.472 30.5062 103.526 31.0602" stroke="#1A2E35" stroke-miterlimit="10" stroke-linecap="round" stroke-linejoin="round"/>
<path d="M120.246 27.0811C118.121 27.4901 116.001 27.9349 113.888 28.4135" stroke="#1A2E35" stroke-miterlimit="10" stroke-linecap="round" stroke-linejoin="round"/>
<path d="M129.928 25.4651C128.094 25.7252 126.265 26.0094 124.437 26.3208" stroke="#1A2E35" stroke-miterlimit="10" stroke-linecap="round" stroke-linejoin="round"/>
<path d="M188.244 25.8546C170.32 23.0717 152.087 22.7603 134.094 24.9195" stroke="#1A2E35" stroke-miterlimit="10" stroke-linecap="round" stroke-linejoin="round"/>
<path d="M196.225 27.2607C194.579 26.9358 192.93 26.6322 191.278 26.3499" stroke="#1A2E35" stroke-miterlimit="10" stroke-linecap="round" stroke-linejoin="round"/>
<path d="M203.965 28.9505C202.318 28.556 200.668 28.1837 199.013 27.8317" stroke="#1A2E35" stroke-miterlimit="10" stroke-linecap="round" stroke-linejoin="round"/>
<path d="M213.484 31.4821C211.805 30.9899 210.119 30.5209 208.429 30.0742" stroke="#1A2E35" stroke-miterlimit="10" stroke-linecap="round" stroke-linejoin="round"/>
<path d="M271.025 59.1437C254.744 47.7289 237.125 39.0564 218.812 33.1252" stroke="#1A2E35" stroke-miterlimit="10" stroke-linecap="round" stroke-linejoin="round"/>
<path d="M278.799 64.8835C277.287 63.7087 275.76 62.558 274.222 61.4335" stroke="#1A2E35" stroke-miterlimit="10" stroke-linecap="round" stroke-linejoin="round"/>
<path d="M286.596 71.2631C284.938 69.8349 283.262 68.4386 281.569 67.0733" stroke="#1A2E35" stroke-miterlimit="10" stroke-linecap="round" stroke-linejoin="round"/>
<path d="M297.482 81.3726C295.214 79.1041 292.904 76.9024 290.555 74.7674" stroke="#1A2E35" stroke-miterlimit="10" stroke-linecap="round" stroke-linejoin="round"/>
<path d="M221.866 46.0505C221.866 59.3353 232.636 70.1051 245.921 70.1051C259.207 70.1051 269.977 59.3353 269.977 46.0505C269.977 32.7647 259.207 21.9958 245.921 21.9958C232.636 21.9958 221.866 32.7647 221.866 46.0505Z" fill="#38BFF2"/>
<g opacity="0.300003">
<g opacity="0.300003">
<path opacity="0.300003" d="M222.235 45.4755C222.235 58.7603 233.005 69.5302 246.29 69.5302C259.576 69.5302 270.346 58.7603 270.346 45.4755C270.346 32.1897 259.576 21.4209 246.29 21.4209C233.005 21.4209 222.235 32.1897 222.235 45.4755Z" fill="white"/>
</g>
</g>
<path d="M221.866 46.0504C221.866 59.3352 232.636 70.105 245.921 70.105C259.207 70.105 269.977 59.3352 269.977 46.0504C269.977 32.7646 259.207 21.9958 245.921 21.9958C232.636 21.9958 221.866 32.7646 221.866 46.0504Z" stroke="#1A2E35" stroke-miterlimit="10" stroke-linecap="round" stroke-linejoin="round"/>
<path d="M292.533 113.768H306.412C312.798 113.768 317.975 108.591 317.975 102.205V88.3267C317.975 81.941 312.798 76.764 306.412 76.764H292.533C286.148 76.764 280.971 81.941 280.971 88.3267V102.205C280.971 108.591 286.148 113.768 292.533 113.768Z" fill="#38BFF2"/>
<path d="M292.533 113.768H306.412C312.798 113.768 317.975 108.591 317.975 102.205V88.3267C317.975 81.941 312.798 76.764 306.412 76.764H292.533C286.148 76.764 280.971 81.941 280.971 88.3267V102.205C280.971 108.591 286.148 113.768 292.533 113.768Z" stroke="#1A2E35" stroke-miterlimit="10" stroke-linecap="round" stroke-linejoin="round"/>
<path d="M312.881 96.1609V94.3721L305.483 91.1811V93.115L310.584 95.2665L305.483 97.4179V99.3518L312.881 96.1609Z" fill="white"/>
<path d="M312.881 96.1609V94.3721L305.483 91.1811V93.115L310.584 95.2665L305.483 97.4179V99.3518L312.881 96.1609Z" stroke="#1A2E35" stroke-miterlimit="10" stroke-linecap="round" stroke-linejoin="round"/>
<path d="M297.286 86.8054H294.99L301.662 103.727H303.957L297.286 86.8054Z" fill="white"/>
<path d="M297.286 86.8054H294.99L301.662 103.727H303.957L297.286 86.8054Z" stroke="#1A2E35" stroke-miterlimit="10" stroke-linecap="round" stroke-linejoin="round"/>
<path d="M293.459 97.4177L288.358 95.2663L293.459 93.1148V91.181L286.062 94.3719V96.1607L293.459 99.3516V97.4177Z" fill="white"/>
<path d="M293.459 97.4177L288.358 95.2663L293.459 93.1148V91.181L286.062 94.3719V96.1607L293.459 99.3516V97.4177Z" stroke="#1A2E35" stroke-miterlimit="10" stroke-linecap="round" stroke-linejoin="round"/>
<path d="M54.7269 40.6076C54.7269 51.9469 63.9196 61.1396 75.258 61.1396C86.5983 61.1396 95.791 51.9469 95.791 40.6076C95.791 29.2673 86.5983 20.0755 75.258 20.0755C63.9196 20.0755 54.7269 29.2673 54.7269 40.6076Z" fill="#38BFF2"/>
<g opacity="0.199997">
<g opacity="0.199997">
<path opacity="0.199997" d="M54.5902 41.0058C54.5902 52.3451 63.7829 61.5378 75.1213 61.5378C86.4616 61.5378 95.6543 52.3451 95.6543 41.0058C95.6543 29.6655 86.4616 20.4737 75.1213 20.4737C63.7829 20.4737 54.5902 29.6655 54.5902 41.0058Z" fill="black"/>
</g>
</g>
<path d="M54.7269 40.6077C54.7269 51.947 63.9196 61.1397 75.258 61.1397C86.5983 61.1397 95.791 51.947 95.791 40.6077C95.791 29.2674 86.5983 20.0756 75.258 20.0756C63.9196 20.0756 54.7269 29.2674 54.7269 40.6077Z" stroke="#1A2E35" stroke-miterlimit="10" stroke-linecap="round" stroke-linejoin="round"/>
<path d="M153.962 45.3526H172.515C179.776 45.3526 185.664 39.4649 185.664 32.2022V13.6504C185.664 6.38773 179.776 0.500011 172.515 0.500011H153.962C146.699 0.500011 140.811 6.38773 140.811 13.6504V32.2022C140.811 39.4649 146.699 45.3526 153.962 45.3526Z" fill="#38BFF2"/>
<path d="M153.962 45.3526H172.515C179.776 45.3526 185.664 39.4649 185.664 32.2022V13.6504C185.664 6.38773 179.776 0.500013 172.515 0.500013H153.962C146.699 0.500013 140.811 6.38773 140.811 13.6504V32.2022C140.811 39.4649 146.699 45.3526 153.962 45.3526Z" stroke="#1A2E35" stroke-miterlimit="10" stroke-linecap="round" stroke-linejoin="round"/>
<path d="M0.498299 84.0317C0.498299 95.3421 9.66588 104.511 20.9772 104.511C32.2875 104.511 41.4551 95.3421 41.4551 84.0317C41.4551 72.7214 32.2875 63.5529 20.9772 63.5529C9.66588 63.5529 0.498299 72.7214 0.498299 84.0317Z" fill="#38BFF2"/>
<g opacity="0.300003">
<g opacity="0.300003">
<path opacity="0.300003" d="M1.03345 84.4454C1.03345 95.7557 10.201 104.924 21.5123 104.924C32.8227 104.924 41.9902 95.7557 41.9902 84.4454C41.9902 73.1351 32.8227 63.9665 21.5123 63.9665C10.201 63.9665 1.03345 73.1351 1.03345 84.4454Z" fill="white"/>
</g>
</g>
<path d="M0.500252 84.0316C0.500252 95.3419 9.66783 104.51 20.9791 104.51C32.2895 104.51 41.457 95.3419 41.457 84.0316C41.457 72.7213 32.2895 63.5528 20.9791 63.5528C9.66783 63.5528 0.500252 72.7213 0.500252 84.0316Z" stroke="#1A2E35" stroke-miterlimit="10" stroke-linecap="round" stroke-linejoin="round"/>
<path d="M263.071 319.849H266.654L267.621 177.462H263.071V319.849Z" fill="#868686"/>
<path d="M263.071 319.849H266.654L267.621 177.462H263.071V319.849Z" stroke="#1A2E35" stroke-width="1.33333" stroke-miterlimit="10" stroke-linecap="round" stroke-linejoin="round"/>
<path d="M259.489 319.849H263.072V177.462H258.522L259.489 319.849Z" fill="#9A9A9A"/>
<path d="M259.489 319.849H263.072V177.462H258.522L259.489 319.849Z" stroke="#1A2E35" stroke-width="1.33333" stroke-miterlimit="10" stroke-linecap="round" stroke-linejoin="round"/>
<path d="M58.3127 177.462H304.115V168.744H58.3127V177.462Z" fill="#1A2E35" stroke="#1A2E35" stroke-width="1.33333" stroke-miterlimit="10" stroke-linecap="round" stroke-linejoin="round"/>
<path d="M6.94307 177.462H61.9805V168.744H6.94307V177.462Z" fill="#868686" stroke="#1A2E35" stroke-width="1.33333" stroke-miterlimit="10" stroke-linecap="round" stroke-linejoin="round"/>
<path d="M47.1588 191.835H291.527V177.462H47.1588V191.835Z" fill="#38BFF2" stroke="#1A2E35" stroke-width="1.33333" stroke-miterlimit="10"/>
<path d="M47.1582 191.835H18.703V177.462H47.1582V191.835Z" fill="#38BFF2"/>
<g opacity="0.300003">
<path opacity="0.300003" d="M47.1602 191.835H18.705V177.462H47.1602V191.835Z" fill="black"/>
</g>
<path d="M47.1582 191.835H18.703V177.462H47.1582V191.835Z" stroke="#1A2E35" stroke-width="1.33333" stroke-miterlimit="10"/>
<path d="M47.1576 319.849H50.7401L51.707 177.462H47.1576V319.849Z" fill="#868686"/>
<path d="M47.1576 319.849H50.7401L51.707 177.462H47.1576V319.849Z" stroke="#1A2E35" stroke-width="1.33333" stroke-miterlimit="10" stroke-linecap="round" stroke-linejoin="round"/>
<path d="M43.5747 319.849H47.1582V177.462H42.6078L43.5747 319.849Z" fill="#9A9A9A"/>
<path d="M43.5747 319.849H47.1582V177.462H42.6078L43.5747 319.849Z" stroke="#1A2E35" stroke-width="1.33333" stroke-miterlimit="10" stroke-linecap="round" stroke-linejoin="round"/>
<path d="M291.526 319.849H295.109L296.076 177.462H291.526V319.849Z" fill="#868686"/>
<path d="M291.526 319.849H295.109L296.076 177.462H291.526V319.849Z" stroke="#1A2E35" stroke-width="1.33333" stroke-miterlimit="10" stroke-linecap="round" stroke-linejoin="round"/>
<path d="M287.942 319.849H291.525V177.462H286.975L287.942 319.849Z" fill="#9A9A9A"/>
<path d="M287.942 319.849H291.525V177.462H286.975L287.942 319.849Z" stroke="#1A2E35" stroke-width="1.33333" stroke-miterlimit="10" stroke-linecap="round" stroke-linejoin="round"/>
<path d="M18.7025 319.849H22.285L23.252 177.462H18.7025V319.849Z" fill="#868686"/>
<path d="M18.7025 319.849H22.285L23.252 177.462H18.7025V319.849Z" stroke="#1A2E35" stroke-width="1.33333" stroke-miterlimit="10" stroke-linecap="round" stroke-linejoin="round"/>
<path d="M15.1196 319.849H18.7031V177.462H14.1527L15.1196 319.849Z" fill="#9A9A9A"/>
<path d="M15.1196 319.849H18.7031V177.462H14.1527L15.1196 319.849Z" stroke="#1A2E35" stroke-width="1.33333" stroke-miterlimit="10" stroke-linecap="round" stroke-linejoin="round"/>
<path d="M145.272 167.778H174.08C174.669 167.778 175.146 167.3 175.146 166.71V164.332L144.204 165.299V166.71C144.204 167.3 144.683 167.778 145.272 167.778Z" fill="#868686"/>
<path d="M145.272 167.778H174.08C174.669 167.778 175.146 167.3 175.146 166.71V164.332L144.204 165.299V166.71C144.204 167.3 144.683 167.778 145.272 167.778Z" stroke="#1A2E35" stroke-width="1.33333" stroke-miterlimit="10" stroke-linecap="round" stroke-linejoin="round"/>
<path d="M178.36 167.778H236.274C237.202 167.778 238.107 167.09 238.389 166.171L250.82 125.81C251.162 124.703 250.473 123.721 249.357 123.721H191.442C190.515 123.721 189.61 124.408 189.327 125.328L176.896 165.688C176.554 166.794 177.243 167.778 178.36 167.778Z" fill="#9A9A9A"/>
<path d="M178.36 167.778H236.274C237.202 167.778 238.107 167.09 238.389 166.171L250.82 125.81C251.162 124.703 250.473 123.721 249.357 123.721H191.442C190.515 123.721 189.61 124.408 189.327 125.328L176.896 165.688C176.554 166.794 177.243 167.778 178.36 167.778Z" stroke="#1A2E35" stroke-width="1.33333" stroke-miterlimit="10" stroke-linecap="round" stroke-linejoin="round"/>
<path d="M174.297 165.688L186.728 125.328C187.011 124.408 187.916 123.721 188.843 123.721H191.445C190.518 123.721 189.613 124.408 189.33 125.328L176.899 165.688C176.557 166.795 177.246 167.777 178.363 167.777H175.761C174.644 167.777 173.955 166.795 174.297 165.688Z" fill="#868686"/>
<path d="M174.297 165.688L186.728 125.328C187.011 124.408 187.916 123.721 188.843 123.721H191.445C190.518 123.721 189.613 124.408 189.33 125.328L176.899 165.688C176.557 166.795 177.246 167.777 178.363 167.777H175.761C174.644 167.777 173.955 166.795 174.297 165.688Z" stroke="#1A2E35" stroke-width="1.33333" stroke-miterlimit="10" stroke-linecap="round" stroke-linejoin="round"/>
<path d="M210.278 145.749C210.036 147.727 211.443 149.331 213.421 149.331C215.399 149.331 217.201 147.727 217.443 145.749C217.686 143.77 216.279 142.166 214.301 142.166C212.323 142.166 210.521 143.77 210.278 145.749Z" fill="white"/>
<path d="M210.278 145.749C210.036 147.727 211.443 149.331 213.421 149.331C215.399 149.331 217.201 147.727 217.443 145.749C217.686 143.77 216.279 142.166 214.301 142.166C212.323 142.166 210.521 143.77 210.278 145.749Z" stroke="#1A2E35" stroke-width="1.33333" stroke-miterlimit="10" stroke-linecap="round" stroke-linejoin="round"/>
<path d="M78.7832 47.6905H79.1574C79.9755 47.6905 80.3959 47.317 80.3959 46.0322V42.5257C80.3959 41.6841 80.6997 40.7963 81.8216 40.4691V40.4228C80.6997 40.0956 80.3959 39.2063 80.3959 38.3654V34.8597C80.3959 33.5742 79.9755 33.2006 79.1574 33.2006H78.7832V31.0963H80.0922C81.5406 31.0963 82.6867 31.9145 82.6867 33.6915V37.9913C82.6867 39.0669 82.9897 39.3941 84.1586 39.3941V41.497C82.9897 41.497 82.6867 41.8243 82.6867 42.8992V47.2003C82.6867 48.976 81.5406 49.7941 80.0922 49.7941H78.7832V47.6905Z" fill="white"/>
<path d="M78.5312 47.9366H78.9286C79.7975 47.9366 80.244 47.5489 80.244 46.2152V42.5752C80.244 41.7016 80.5666 40.7799 81.7581 40.4402V40.3922C80.5666 40.0525 80.244 39.1294 80.244 38.2565V34.6172C80.244 33.2828 79.7975 32.895 78.9286 32.895H78.5312V30.7106H79.9214C81.4597 30.7106 82.6768 31.5599 82.6768 33.4046V37.868C82.6768 38.9846 82.9987 39.3243 84.24 39.3243V41.5073C82.9987 41.5073 82.6768 41.847 82.6768 42.9629V47.4278C82.6768 49.2711 81.4597 50.1204 79.9214 50.1204H78.5312V47.9366Z" stroke="#1A2E35" stroke-miterlimit="10" stroke-linecap="round" stroke-linejoin="round"/>
<path d="M72.5703 47.6905H72.1961C71.378 47.6905 70.9576 47.317 70.9576 46.0322V42.5257C70.9576 41.6841 70.6538 40.7963 69.5319 40.4691V40.4228C70.6538 40.0956 70.9576 39.2063 70.9576 38.3654V34.8597C70.9576 33.5742 71.378 33.2006 72.1961 33.2006H72.5703V31.0963H71.2613C69.8129 31.0963 68.6669 31.9145 68.6669 33.6915V37.9913C68.6669 39.0669 68.3638 39.3941 67.195 39.3941V41.497C68.3638 41.497 68.6669 41.8243 68.6669 42.8992V47.2003C68.6669 48.976 69.8129 49.7941 71.2613 49.7941H72.5703V47.6905Z" fill="white"/>
<path d="M72.8223 47.9366H72.4249C71.556 47.9366 71.1095 47.5489 71.1095 46.2152V42.5752C71.1095 41.7016 70.7869 40.7799 69.5954 40.4402V40.3922C70.7869 40.0525 71.1095 39.1294 71.1095 38.2565V34.6172C71.1095 33.2828 71.556 32.895 72.4249 32.895H72.8223V30.7106H71.4321C69.8938 30.7106 68.6767 31.5599 68.6767 33.4046V37.868C68.6767 38.9846 68.3548 39.3243 67.1135 39.3243V41.5073C68.3548 41.5073 68.6767 41.847 68.6767 42.9629V47.4278C68.6767 49.2711 69.8938 50.1204 71.4321 50.1204H72.8223V47.9366Z" stroke="#1A2E35" stroke-miterlimit="10" stroke-linecap="round" stroke-linejoin="round"/>
<mask id="path-192-outside-1_22104_13032" maskUnits="userSpaceOnUse" x="156.41" y="16.9938" width="18" height="19" fill="black">
<rect fill="white" x="156.41" y="16.9938" width="18" height="19"/>
<path fill-rule="evenodd" clip-rule="evenodd" d="M167.713 29.449V31.9346C167.713 33.6277 164.788 34.06 163.174 34.06H160.292C158.935 33.9639 157.41 33.5196 157.41 31.9346V28.3084C157.41 25.8547 159.399 23.8655 161.853 23.8655H162.706C165.948 23.8655 168.577 21.2366 168.577 17.9938H171.171C171.879 18.1619 173.296 19.4059 173.296 23.037C173.296 27.0152 169.134 28.3683 165.155 28.3683H162.525V29.2689H167.713V29.449ZM165.911 32.2589C166.229 32.2589 166.488 32.0008 166.488 31.6825C166.488 31.3642 166.229 31.1061 165.911 31.1061C165.593 31.1061 165.335 31.3642 165.335 31.6825C165.335 32.0008 165.593 32.2589 165.911 32.2589Z"/>
</mask>
<path fill-rule="evenodd" clip-rule="evenodd" d="M167.713 29.449V31.9346C167.713 33.6277 164.788 34.06 163.174 34.06H160.292C158.935 33.9639 157.41 33.5196 157.41 31.9346V28.3084C157.41 25.8547 159.399 23.8655 161.853 23.8655H162.706C165.948 23.8655 168.577 21.2366 168.577 17.9938H171.171C171.879 18.1619 173.296 19.4059 173.296 23.037C173.296 27.0152 169.134 28.3683 165.155 28.3683H162.525V29.2689H167.713V29.449ZM165.911 32.2589C166.229 32.2589 166.488 32.0008 166.488 31.6825C166.488 31.3642 166.229 31.1061 165.911 31.1061C165.593 31.1061 165.335 31.3642 165.335 31.6825C165.335 32.0008 165.593 32.2589 165.911 32.2589Z" fill="white"/>
<path d="M160.292 34.06L160.221 35.0575L160.257 35.06H160.292V34.06ZM168.577 17.9938V16.9938H167.577V17.9938H168.577ZM171.171 17.9938L171.402 17.0208L171.288 16.9938H171.171V17.9938ZM162.525 28.3683V27.3683H161.525V28.3683H162.525ZM162.525 29.2689H161.525V30.2689H162.525V29.2689ZM167.713 29.2689H168.713V28.2689H167.713V29.2689ZM168.713 31.9346V29.449H166.713V31.9346H168.713ZM163.174 35.06C164.043 35.06 165.298 34.9464 166.373 34.5782C167.357 34.241 168.713 33.4896 168.713 31.9346H166.713C166.713 32.0727 166.606 32.3839 165.724 32.6862C164.933 32.9574 163.918 33.06 163.174 33.06V35.06ZM160.292 35.06H163.174V33.06H160.292V35.06ZM156.41 31.9346C156.41 33.1298 157.023 33.9441 157.839 34.4195C158.587 34.856 159.49 35.0057 160.221 35.0575L160.363 33.0624C159.737 33.0182 159.199 32.8977 158.846 32.6918C158.56 32.5248 158.41 32.3244 158.41 31.9346H156.41ZM156.41 28.3084V31.9346H158.41V28.3084H156.41ZM161.853 22.8655C158.847 22.8655 156.41 25.3024 156.41 28.3084H158.41C158.41 26.407 159.952 24.8655 161.853 24.8655V22.8655ZM162.706 22.8655H161.853V24.8655H162.706V22.8655ZM167.577 17.9938C167.577 20.6844 165.396 22.8655 162.706 22.8655V24.8655C166.501 24.8655 169.577 21.7889 169.577 17.9938H167.577ZM171.171 16.9938H168.577V18.9938H171.171V16.9938ZM174.296 23.037C174.296 19.2324 172.792 17.3508 171.402 17.0208L170.94 18.9668C170.933 18.965 171.016 18.9867 171.155 19.105C171.289 19.2179 171.459 19.4074 171.628 19.7076C171.966 20.3077 172.296 21.3467 172.296 23.037H174.296ZM165.155 29.3683C167.232 29.3683 169.454 29.0192 171.195 28.0732C172.99 27.0982 174.296 25.4616 174.296 23.037H172.296C172.296 24.5906 171.522 25.6197 170.24 26.3158C168.906 27.0409 167.057 27.3683 165.155 27.3683V29.3683ZM162.525 29.3683H165.155V27.3683H162.525V29.3683ZM163.525 29.2689V28.3683H161.525V29.2689H163.525ZM167.713 28.2689H162.525V30.2689H167.713V28.2689ZM168.713 29.449V29.2689H166.713V29.449H168.713ZM165.488 31.6825C165.488 31.4485 165.677 31.2589 165.911 31.2589V33.2589C166.782 33.2589 167.488 32.5531 167.488 31.6825H165.488ZM165.911 32.1061C165.677 32.1061 165.488 31.9165 165.488 31.6825H167.488C167.488 30.8119 166.782 30.1061 165.911 30.1061V32.1061ZM166.335 31.6825C166.335 31.9165 166.145 32.1061 165.911 32.1061V30.1061C165.041 30.1061 164.335 30.8119 164.335 31.6825H166.335ZM165.911 31.2589C166.145 31.2589 166.335 31.4485 166.335 31.6825H164.335C164.335 32.5531 165.041 33.2589 165.911 33.2589V31.2589Z" fill="#1A2E35" mask="url(#path-192-outside-1_22104_13032)"/>
<mask id="path-194-outside-2_22104_13032" maskUnits="userSpaceOnUse" x="150.568" y="10.5845" width="18" height="19" fill="black">
<rect fill="white" x="150.568" y="10.5845" width="18" height="19"/>
<path fill-rule="evenodd" clip-rule="evenodd" d="M157.266 17.1293L157.266 14.6437C157.266 12.9506 160.191 12.5184 161.805 12.5184L164.687 12.5184C166.043 12.6144 167.568 13.0587 167.568 14.6437L167.568 18.2699C167.568 20.7236 165.579 22.7128 163.126 22.7128L162.273 22.7128C159.03 22.7128 156.401 25.3417 156.401 28.5845L153.808 28.5845C153.099 28.4164 151.682 27.1724 151.682 23.5413C151.682 19.5631 155.845 18.21 159.823 18.21L162.453 18.21L162.453 17.3094L157.266 17.3094L157.266 17.1293ZM159.067 14.3195C158.749 14.3195 158.491 14.5776 158.491 14.8959C158.491 15.2142 158.749 15.4723 159.067 15.4723C159.386 15.4723 159.644 15.2142 159.644 14.8959C159.644 14.5776 159.386 14.3195 159.067 14.3195Z"/>
</mask>
<path fill-rule="evenodd" clip-rule="evenodd" d="M157.266 17.1293L157.266 14.6437C157.266 12.9506 160.191 12.5184 161.805 12.5184L164.687 12.5184C166.043 12.6144 167.568 13.0587 167.568 14.6437L167.568 18.2699C167.568 20.7236 165.579 22.7128 163.126 22.7128L162.273 22.7128C159.03 22.7128 156.401 25.3417 156.401 28.5845L153.808 28.5845C153.099 28.4164 151.682 27.1724 151.682 23.5413C151.682 19.5631 155.845 18.21 159.823 18.21L162.453 18.21L162.453 17.3094L157.266 17.3094L157.266 17.1293ZM159.067 14.3195C158.749 14.3195 158.491 14.5776 158.491 14.8959C158.491 15.2142 158.749 15.4723 159.067 15.4723C159.386 15.4723 159.644 15.2142 159.644 14.8959C159.644 14.5776 159.386 14.3195 159.067 14.3195Z" fill="white"/>
<path d="M157.266 14.6437L156.266 14.6437L157.266 14.6437ZM157.266 17.1293L158.266 17.1293L157.266 17.1293ZM164.687 12.5184L164.757 11.5208L164.722 11.5184L164.687 11.5184L164.687 12.5184ZM167.568 14.6437L166.568 14.6437L167.568 14.6437ZM167.568 18.2699L168.568 18.2699L167.568 18.2699ZM156.401 28.5845L156.401 29.5845L157.401 29.5845L157.401 28.5845L156.401 28.5845ZM153.808 28.5845L153.577 29.5575L153.691 29.5845L153.808 29.5845L153.808 28.5845ZM162.453 18.21L162.453 19.21L163.453 19.21L163.453 18.21L162.453 18.21ZM162.453 17.3094L163.453 17.3094L163.453 16.3094L162.453 16.3094L162.453 17.3094ZM157.266 17.3094L156.266 17.3094L156.266 18.3094L157.266 18.3094L157.266 17.3094ZM156.266 14.6437L156.266 17.1293L158.266 17.1293L158.266 14.6437L156.266 14.6437ZM161.805 11.5184C160.935 11.5184 159.68 11.6319 158.606 12.0001C157.622 12.3373 156.266 13.0888 156.266 14.6437L158.266 14.6437C158.266 14.5056 158.372 14.1944 159.254 13.8921C160.046 13.6209 161.06 13.5184 161.805 13.5184L161.805 11.5184ZM164.687 11.5184L161.805 11.5184L161.805 13.5184L164.687 13.5184L164.687 11.5184ZM168.568 14.6437C168.568 13.4485 167.955 12.6342 167.14 12.1588C166.391 11.7223 165.488 11.5726 164.757 11.5208L164.616 13.5159C165.241 13.5601 165.779 13.6806 166.133 13.8865C166.419 14.0536 166.568 14.2539 166.568 14.6437L168.568 14.6437ZM168.568 18.2699L168.568 14.6437L166.568 14.6437L166.568 18.2699L168.568 18.2699ZM163.126 23.7128C166.132 23.7128 168.568 21.2759 168.568 18.2699L166.568 18.2699C166.568 20.1713 165.027 21.7128 163.126 21.7128L163.126 23.7128ZM162.273 23.7128L163.126 23.7128L163.126 21.7128L162.273 21.7128L162.273 23.7128ZM157.401 28.5845C157.401 25.894 159.582 23.7128 162.273 23.7128L162.273 21.7128C158.478 21.7128 155.401 24.7894 155.401 28.5845L157.401 28.5845ZM153.808 29.5845L156.401 29.5845L156.401 27.5845L153.808 27.5845L153.808 29.5845ZM150.682 23.5413C150.682 27.346 152.186 29.2275 153.577 29.5575L154.039 27.6116C154.046 27.6133 153.963 27.5916 153.823 27.4733C153.69 27.3604 153.52 27.1709 153.351 26.8707C153.012 26.2706 152.682 25.2316 152.682 23.5413L150.682 23.5413ZM159.823 17.21C157.747 17.21 155.525 17.5591 153.783 18.5051C151.989 19.4801 150.682 21.1167 150.682 23.5413L152.682 23.5413C152.682 21.9877 153.457 20.9586 154.738 20.2625C156.073 19.5374 157.921 19.21 159.823 19.21L159.823 17.21ZM162.453 17.21L159.823 17.21L159.823 19.21L162.453 19.21L162.453 17.21ZM161.453 17.3094L161.453 18.21L163.453 18.21L163.453 17.3094L161.453 17.3094ZM157.266 18.3094L162.453 18.3094L162.453 16.3094L157.266 16.3094L157.266 18.3094ZM156.266 17.1293L156.266 17.3094L158.266 17.3094L158.266 17.1293L156.266 17.1293ZM159.491 14.8959C159.491 15.1299 159.301 15.3195 159.067 15.3195L159.067 13.3195C158.197 13.3195 157.491 14.0253 157.491 14.8959L159.491 14.8959ZM159.067 14.4723C159.301 14.4723 159.491 14.6619 159.491 14.8959L157.491 14.8959C157.491 15.7665 158.197 16.4723 159.067 16.4723L159.067 14.4723ZM158.644 14.8959C158.644 14.6619 158.833 14.4723 159.067 14.4723L159.067 16.4723C159.938 16.4723 160.644 15.7665 160.644 14.8959L158.644 14.8959ZM159.067 15.3195C158.833 15.3195 158.644 15.1299 158.644 14.8959L160.644 14.8959C160.644 14.0253 159.938 13.3195 159.067 13.3195L159.067 15.3195Z" fill="#1A2E35" mask="url(#path-194-outside-2_22104_13032)"/>
<rect x="12.9512" y="74.739" width="16.9845" height="4.42525" rx="1.5" fill="white" stroke="#1A2E35"/>
<rect x="12.9512" y="81.5895" width="16.9845" height="5.567" rx="1.5" fill="white" stroke="#1A2E35"/>
<rect x="12.9512" y="89.5818" width="16.9845" height="4.42525" rx="1.5" fill="white" stroke="#1A2E35"/>
<path d="M246.422 33.5C246.578 33.512 246.713 33.5422 246.804 33.5762C246.827 33.5955 246.861 33.6237 246.905 33.6631C247.002 33.7494 247.137 33.8744 247.306 34.0342C247.643 34.3533 248.108 34.8023 248.657 35.3398C249.756 36.4145 251.19 37.837 252.62 39.2676C254.05 40.6981 255.473 42.1361 256.552 43.2402C257.091 43.7924 257.543 44.2595 257.865 44.6006C258.027 44.7715 258.154 44.909 258.242 45.0078C258.286 45.0573 258.318 45.094 258.339 45.1191C258.451 45.3653 258.457 45.7541 258.342 46.0234C258.336 46.0317 258.323 46.0501 258.3 46.0791C258.253 46.1371 258.181 46.2195 258.078 46.332C257.873 46.5569 257.561 46.8855 257.111 47.3467C256.213 48.268 254.78 49.7074 252.591 51.8916C250.245 54.2331 248.807 55.6589 247.931 56.5078C247.492 56.9329 247.198 57.2081 247.004 57.3799C246.906 57.4661 246.84 57.5204 246.797 57.5527C246.791 57.5571 246.786 57.5604 246.781 57.5635C246.653 57.6001 246.495 57.6185 246.335 57.6104C246.175 57.6022 246.044 57.5689 245.958 57.5312C245.935 57.5118 245.903 57.4841 245.861 57.4463C245.769 57.3624 245.639 57.2412 245.477 57.0869C245.152 56.779 244.703 56.3458 244.171 55.8271C243.106 54.7898 241.71 53.4147 240.311 52.0273C238.911 50.6401 237.51 49.241 236.434 48.1553C235.895 47.6123 235.439 47.149 235.105 46.8047C234.939 46.6325 234.804 46.4912 234.706 46.3857C234.657 46.3329 234.618 46.2898 234.59 46.2578C234.559 46.2226 234.549 46.2111 234.551 46.2139C234.326 45.9069 234.264 45.6073 234.34 45.2578L234.391 45.0215L238.225 41.1787L241.809 37.5859L242.87 38.6475C243.367 39.1437 243.709 39.4971 243.923 39.7324C243.982 39.7973 244.025 39.8525 244.061 39.8945C244.057 39.92 244.052 39.9445 244.049 39.9668C244.034 40.0836 244.025 40.2144 244.021 40.3428C244.015 40.5813 244.025 40.8851 244.081 41.0918C244.223 41.6182 244.633 42.1731 245.094 42.4717L245.188 42.5332V48.8477L245.097 48.9053C244.082 49.5365 243.727 50.8716 244.24 51.957C244.662 52.8481 245.457 53.3521 246.443 53.3545C246.649 53.355 246.832 53.3491 247.021 53.3008C247.209 53.2529 247.375 53.171 247.562 53.0713C249.11 52.2415 249.318 50.2285 247.988 49.083H247.987L247.832 48.9482V43.6113L248.255 44.0342C248.866 44.6451 249.163 44.9464 249.305 45.1152C249.29 45.1843 249.281 45.2533 249.274 45.3105C249.26 45.4339 249.251 45.5749 249.25 45.708C249.249 45.8953 249.26 46.065 249.305 46.2461C249.349 46.4229 249.419 46.587 249.509 46.7695C250.402 48.5855 252.945 48.5744 253.837 46.7617C254.01 46.4107 254.112 46.0621 254.112 45.6934C254.113 45.3245 254.01 44.9764 253.838 44.626C253.61 44.1636 253.287 43.7961 252.863 43.5596C252.441 43.3238 251.955 43.2378 251.434 43.2764L251.166 43.2959L249.973 42.0977L248.808 40.9268L248.824 40.8525C248.995 40.0464 248.668 39.2659 248.148 38.7402C247.629 38.2147 246.853 37.8776 246.046 38.043L245.99 38.0537L244.748 36.8086L243.668 35.7266L244.628 34.7754C245.164 34.2436 245.494 33.9254 245.714 33.7334C245.946 33.5308 245.998 33.5227 245.984 33.5264C246.084 33.4993 246.243 33.4863 246.422 33.5Z" fill="white" stroke="#1A2E35"/>
</svg>
