<svg width="70" height="61" viewBox="0 0 70 61" fill="none" xmlns="http://www.w3.org/2000/svg">
<path d="M68.5556 3.65996V39.2405H0.720703V3.65996C0.720703 2.04235 2.01242 0.732178 3.60725 0.732178H65.6691C67.2639 0.732039 68.5556 2.04235 68.5556 3.65996Z" fill="white"/>
<path d="M0.720703 39.2415V45.7815C0.720703 47.3986 2.01311 48.7093 3.60725 48.7093H65.6691C67.2634 48.7093 68.5556 47.3984 68.5556 45.7815V39.2415H0.720703Z" fill="#38BFF2"/>
<path d="M27.0684 48.7094H42.2083V55.5991H27.0684V48.7094Z" fill="#D7E9FF"/>
<path d="M48.2791 56.4514L50.0835 58.2723C50.5398 58.7328 50.2183 59.5231 49.5745 59.5231H19.7055C19.0617 59.5231 18.7402 58.7328 19.1965 58.2723L21.0009 56.4514C21.5418 55.9056 22.2738 55.5991 23.0368 55.5991H46.243C47.0062 55.5991 47.7382 55.9056 48.2791 56.4514Z" fill="#38BFF2"/>
<path d="M34.6392 45.4319C35.4324 45.4319 36.0753 44.7797 36.0753 43.9753C36.0753 43.1708 35.4324 42.5187 34.6392 42.5187C33.8461 42.5187 33.2031 43.1708 33.2031 43.9753C33.2031 44.7797 33.8461 45.4319 34.6392 45.4319Z" fill="#D7E9FF"/>
<path d="M69.2784 3.65983C69.2784 1.64188 67.6596 0 65.6701 0H3.60828C1.61875 0 0 1.64188 0 3.65983V45.7818C0 47.7998 1.61875 49.4417 3.60828 49.4417H26.3473V54.8671H23.0357C22.0752 54.8671 21.1717 55.2459 20.4917 55.9329L18.6869 57.7535C17.7762 58.6725 18.4187 60.2553 19.7045 60.2553H49.5739C50.859 60.2553 51.5029 58.6732 50.5915 57.7535L48.7867 55.9329C48.1067 55.2452 47.2032 54.8671 46.2426 54.8671H42.931V49.4417H65.6701C67.6596 49.4417 69.2784 47.7998 69.2784 45.7818C69.2784 30.8194 69.2784 19.699 69.2784 3.65983ZM1.44334 3.65983C1.44334 2.44895 2.41445 1.46396 3.60828 1.46396H65.6701C66.8639 1.46396 67.835 2.44895 67.835 3.65983V38.5086H1.44334V3.65983ZM47.7684 56.9699C47.7691 56.9706 47.7691 56.9706 47.7691 56.9706L49.5739 58.7912H19.7045L21.51 56.9699C21.9181 56.5582 22.4599 56.3309 23.0357 56.3309H46.2426C46.8184 56.3309 47.3603 56.5582 47.7684 56.9699ZM41.4878 54.8669H27.7905V49.4415H41.4878V54.8669ZM67.835 45.7818C67.835 46.9927 66.8639 47.9777 65.6701 47.9777C44.971 47.9777 24.258 47.9777 3.60828 47.9777C2.41445 47.9777 1.44334 46.9927 1.44334 45.7818V39.9733H67.835V45.7818Z" fill="#1A2E35"/>
<path d="M34.6384 46.1642C35.828 46.1642 36.7964 45.1821 36.7964 43.9755C36.7964 42.769 35.8282 41.7867 34.6384 41.7867C33.4488 41.7867 32.4805 42.7688 32.4805 43.9755C32.4805 45.1821 33.4488 46.1642 34.6384 46.1642ZM34.6384 43.2507C35.0323 43.2507 35.3531 43.5759 35.3531 43.9755C35.3531 44.375 35.0325 44.7004 34.6384 44.7004C34.2444 44.7004 33.9238 44.3752 33.9238 43.9755C33.9238 43.5759 34.2446 43.2507 34.6384 43.2507Z" fill="#1A2E35"/>
<path d="M55.7052 8.62756H7.36027C6.96133 8.62756 6.63867 8.95497 6.63867 9.35947C6.63867 9.76398 6.96146 10.0914 7.36027 10.0914H55.7052C56.1041 10.0914 56.4268 9.76398 56.4268 9.35947C56.4268 8.95497 56.104 8.62756 55.7052 8.62756Z" fill="#1A2E35"/>
<path d="M55.7052 13.6276H7.36027C6.96133 13.6276 6.63867 13.955 6.63867 14.3595C6.63867 14.764 6.96146 15.0914 7.36027 15.0914H55.7052C56.1041 15.0914 56.4268 14.764 56.4268 14.3595C56.4268 13.955 56.104 13.6276 55.7052 13.6276Z" fill="#1A2E35"/>
<path d="M45.7052 18.6276H7.36027C6.96133 18.6276 6.63867 18.955 6.63867 19.3595C6.63867 19.764 6.96146 20.0914 7.36027 20.0914H45.7052C46.1041 20.0914 46.4268 19.764 46.4268 19.3595C46.4268 18.955 46.104 18.6276 45.7052 18.6276Z" fill="#1A2E35"/>
<path d="M35.7052 23.6276H7.36027C6.96133 23.6276 6.63867 23.955 6.63867 24.3595C6.63867 24.764 6.96146 25.0914 7.36027 25.0914H35.7052C36.1041 25.0914 36.4268 24.764 36.4268 24.3595C36.4268 23.955 36.104 23.6276 35.7052 23.6276Z" fill="#1A2E35"/>
<path d="M25.7052 28.6276H7.36027C6.96133 28.6276 6.63867 28.955 6.63867 29.3595C6.63867 29.764 6.96146 30.0914 7.36027 30.0914H25.7052C26.1041 30.0914 26.4268 29.764 26.4268 29.3595C26.4268 28.955 26.104 28.6276 25.7052 28.6276Z" fill="#1A2E35"/>
</svg>
