<svg width="19" height="11" viewBox="0 0 19 11" fill="none" xmlns="http://www.w3.org/2000/svg">
<path fill-rule="evenodd" clip-rule="evenodd" d="M9.12937 10.5722H10.2447C10.2447 10.5722 10.5816 10.5354 10.7536 10.3503C10.9119 10.1805 10.9069 9.86171 10.9069 9.86171C10.9069 9.86171 10.8851 8.36918 11.5797 8.14933C12.2644 7.93289 13.1437 9.59197 14.0757 10.2298C14.7803 10.7126 15.3157 10.6068 15.3157 10.6068L17.8078 10.5722C17.8078 10.5722 19.1112 10.4921 18.4931 9.46987C18.4426 9.3862 18.1332 8.71375 16.6405 7.33179C15.078 5.88543 15.2872 6.11937 17.1693 3.61747C18.3157 2.09378 18.7739 1.16355 18.6307 0.765131C18.4941 0.385663 17.6511 0.485976 17.6511 0.485976L14.8455 0.503395C14.8455 0.503395 14.6375 0.475115 14.4832 0.56706C14.3325 0.657255 14.2354 0.867457 14.2354 0.867457C14.2354 0.867457 13.7914 2.04653 13.199 3.04926C11.9498 5.16513 11.4502 5.27681 11.2461 5.14544C10.7711 4.83923 10.8897 3.91533 10.8897 3.25896C10.8897 1.20853 11.2015 0.35358 10.2825 0.132275C9.97746 0.0587549 9.75304 0.0102579 8.97306 0.00241305C7.97196 -0.00794615 7.12462 0.00545023 6.64484 0.23989C6.32567 0.395781 6.07944 0.743165 6.2294 0.763119C6.41484 0.787881 6.83482 0.876045 7.05749 1.17845C7.34502 1.56854 7.33488 2.44471 7.33488 2.44471C7.33488 2.44471 7.50004 4.85844 6.94907 5.15832C6.57087 5.36397 6.05209 4.94409 4.93824 3.02452C4.36754 2.04122 3.93664 0.954373 3.93664 0.954373C3.93664 0.954373 3.85356 0.751252 3.70536 0.642611C3.52551 0.510979 3.27421 0.469039 3.27421 0.469039L0.608077 0.486479C0.608077 0.486479 0.20783 0.497602 0.0609107 0.671154C-0.0697962 0.825516 0.0505311 1.14486 0.0505311 1.14486C0.0505311 1.14486 2.13784 6.01527 4.50129 8.46976C6.66841 10.72 9.12937 10.5722 9.12937 10.5722Z" fill="white"/>
</svg>
