<svg width="20" height="14" viewBox="0 0 20 14" fill="none" xmlns="http://www.w3.org/2000/svg">
<path d="M18.8881 1.18737C18.1786 0.344009 16.8687 0 14.3671 0H5.28668C2.7279 0 1.39587 0.366195 0.689084 1.26407C-3.30014e-07 2.13951 0 3.42939 0 5.21461V8.61722C0 12.0759 0.817596 13.8318 5.28668 13.8318H14.3671C16.5365 13.8318 17.7386 13.5283 18.5163 12.784C19.3138 12.0207 19.6541 10.7745 19.6541 8.61722V5.21461C19.6541 3.33194 19.6007 2.03445 18.8881 1.18737ZM12.6179 7.38567L8.49454 9.54063C8.40235 9.58888 8.30154 9.6128 8.20085 9.6128C8.08688 9.6128 7.97314 9.58215 7.87239 9.52105C7.6827 9.40617 7.56686 9.20057 7.56686 8.97879V4.68255C7.56686 4.46116 7.68238 4.25575 7.8717 4.14074C8.06107 4.02571 8.2966 4.01786 8.49307 4.11994L12.6165 6.26109C12.8263 6.37 12.958 6.58659 12.9584 6.82287C12.9586 7.05936 12.8275 7.27625 12.6179 7.38567Z" fill="white"/>
</svg>
